<?xml version="1.0" encoding="UTF-8"?>
<svg width="65px" height="67px" viewBox="0 0 65 67" version="1.1" xmlns="http://www.w3.org/2000/svg" xmlns:xlink="http://www.w3.org/1999/xlink">
    <!-- Generator: Sketch 51.3 (57544) - http://www.bohemiancoding.com/sketch -->
    <title>audio</title>
    <desc>Created with Sketch.</desc>
    <defs></defs>
    <g id="UI" stroke="none" stroke-width="1" fill="none" fill-rule="evenodd">
        <g id="Main-Dashboard" transform="translate(-677.000000, -241.000000)" fill="#15C17F" fill-rule="nonzero">
            <g id="audio-chat" transform="translate(552.000000, 209.000000)">
                <path d="M190,63.7868571 C190,58.8301429 187.263686,54.5028143 183.224029,52.2287429 C180.748086,40.7137143 169.622686,32 156.3105,32 C142.227229,32 130.591114,41.7526 129.055071,54.2573 C126.557771,56.6693571 125,60.0486143 125,63.7868571 C125,71.0962 130.946757,77.0429571 138.2561,77.0429571 C138.769043,77.0429571 139.184671,76.6271429 139.184671,76.1143857 L139.184671,51.4589571 C139.184671,50.9462 138.769043,50.5303857 138.2561,50.5303857 C137.631914,50.5303857 137.0185,50.5768143 136.416786,50.6609429 C139.373357,43.4396286 147.174843,38.2684143 156.3105,38.2684143 C165.460457,38.2684143 173.2716,43.4559714 176.217586,50.6951143 C175.974857,50.8626286 175.815329,51.1421286 175.815329,51.4591429 L175.815329,76.1145714 C175.815329,76.6273286 176.230957,77.0431429 176.7439,77.0431429 C177.051071,77.0431429 177.354714,77.0288429 177.656686,77.0082286 C175.600643,83.4047857 170.035343,88.4874143 162.951271,90.4760429 C162.1033,89.1045429 160.5862,88.1900857 158.855157,88.1900857 L153.765843,88.1900857 C151.1079,88.1900857 148.952686,90.3449286 148.952686,93.0030571 L148.952686,93.9416571 C148.952686,96.5999714 151.1079,98.755 153.765843,98.755 L158.855157,98.755 C161.281514,98.755 163.288157,96.9587714 163.619286,94.6234143 C173.148471,92.1177571 180.477871,84.8412857 182.2715,75.8309857 C186.828,73.7309286 190,69.1237286 190,63.7868571 Z" id="audio"></path>
            </g>
        </g>
    </g>
</svg>