<svg xmlns="http://www.w3.org/2000/svg" width="20" height="21" viewBox="0 0 20 21">
    <path fill="#FFF" fill-rule="nonzero" d="M20 9.78a4.081 4.081 0 0 0-2.085-3.556C17.153 2.681 13.73 0 9.634 0 5.301 0 1.72 3 1.248 6.848A4.066 4.066 0 0 0 0 9.781a4.083 4.083 0 0 0 4.079 4.078.286.286 0 0 0 .286-.285V5.987a.286.286 0 0 0-.286-.285c-.192 0-.381.014-.566.04.91-2.222 3.31-3.813 6.121-3.813 2.815 0 5.219 1.596 6.125 3.823a.285.285 0 0 0-.124.235v7.587c0 .157.128.285.286.285.095 0 .188-.004.281-.01-.633 1.968-2.345 3.532-4.525 4.144a1.48 1.48 0 0 0-1.26-.704H8.851c-.818 0-1.48.663-1.48 1.481v.289c0 .818.662 1.481 1.48 1.481h1.566c.747 0 1.364-.553 1.466-1.271 2.932-.771 5.187-3.01 5.739-5.783A4.084 4.084 0 0 0 20 9.781z"/>
</svg>
