<svg xmlns="http://www.w3.org/2000/svg" width="212" height="34" viewBox="0 0 212 34">
    <g fill="none" fill-rule="evenodd" opacity=".4">
        <path fill="#000" fill-rule="nonzero" d="M17 0h178c9.39 0 17 7.612 17 17s-7.61 17-17 17H17C7.61 34 0 26.387 0 17S7.61 0 17 0z"/>
        <path fill="#2C344F" d="M17 0h178c9.39 0 17 7.612 17 17s-7.61 17-17 17H17C7.61 34 0 26.387 0 17S7.61 0 17 0z"/>
        <path stroke="#F7F7F9" stroke-linecap="round" stroke-linejoin="round" stroke-width="1.25" d="M16.902 27l2.938-1.864c.993.29 2.056.448 3.16.448 5.523 0 10-3.936 10-8.792S28.523 8 23 8c-.744 0-1.468.071-2.166.207-1.965.381-3.713 1.27-5.056 2.504a9.104 9.104 0 0 0-1.22 1.366C13.572 13.439 13 15.057 13 16.792c0 2.624 1.307 4.98 3.38 6.59"/>
        <text fill="#FFF" font-family="SFProDisplay-Regular, SF Pro Display" font-size="16">
            <tspan x="48.148" y="22">Hello! How are you?</tspan>
        </text>
    </g>
</svg>
