<?xml version="1.0" encoding="UTF-8"?>
<svg width="890px" height="650px" viewBox="0 0 890 650" version="1.1" xmlns="http://www.w3.org/2000/svg" xmlns:xlink="http://www.w3.org/1999/xlink">
    <!-- Generator: Sketch 51.3 (57544) - http://www.bohemiancoding.com/sketch -->
    <title>elements</title>
    <desc>Created with Sketch.</desc>
    <defs></defs>
    <g id="UI" stroke="none" stroke-width="1" fill="none" fill-rule="evenodd" opacity="0.300000012">
        <g id="text-Chat" transform="translate(-479.000000, -161.000000)">
            <g id="elements" transform="translate(481.000000, 161.000000)">
                <circle id="Oval-2" fill="#5374FC" cx="54" cy="10" r="10"></circle>
                <path d="M800,510 C803.973372,506 808.294714,506 812.964025,510 C817.633337,514 821.645328,514 825,510" id="Path-5" stroke="#5374FC" stroke-width="3.6" stroke-linecap="round" stroke-linejoin="round" transform="translate(812.500000, 510.000000) rotate(45.000000) translate(-812.500000, -510.000000) "></path>
                <path d="M106,319 C109.973372,315 114.294714,315 118.964025,319 C123.633337,323 127.645328,323 131,319" id="Path-5-Copy" stroke="#5374FC" stroke-width="3.6" stroke-linecap="round" stroke-linejoin="round" transform="translate(118.500000, 319.000000) rotate(-45.000000) translate(-118.500000, -319.000000) "></path>
                <path d="M9,159 C12.9733722,155 17.294714,155 21.9640253,159 C26.6333366,163 30.6453282,163 34,159" id="Path-5-Copy-2" stroke="#F3F6FB" stroke-width="3.6" opacity="0.100000001" stroke-linecap="round" stroke-linejoin="round" transform="translate(21.500000, 159.000000) rotate(65.000000) translate(-21.500000, -159.000000) "></path>
                <polygon id="Star-3" fill="#EA4C4C" transform="translate(283.344034, 87.655966) rotate(45.000000) translate(-283.344034, -87.655966) " points="283.344034 95.0996102 275.996718 98.9623226 277.39993 90.7809664 271.455827 84.9868977 279.670376 83.793254 283.344034 76.3496102 287.017691 83.793254 295.23224 84.9868977 289.288137 90.7809664 290.691349 98.9623226"></polygon>
                <path d="M602.699153,645.220299 L601.676416,639.257287 L606.008798,635.034257 L600.021593,634.164266 L597.344034,628.738937 L594.666474,634.164266 L588.679269,635.034257 L593.011651,639.257287 L591.988915,645.220299 L597.344034,642.404947 L602.699153,645.220299 Z" id="Star-3-Copy-2" stroke="#EA4C4C" stroke-width="3" transform="translate(597.344034, 636.655966) rotate(45.000000) translate(-597.344034, -636.655966) "></path>
                <polygon id="Star-3-Copy" fill="#F3F6FB" transform="translate(414.344034, 145.655966) rotate(45.000000) translate(-414.344034, -145.655966) " points="414.344034 153.09961 406.996718 156.962323 408.39993 148.780966 402.455827 142.986898 410.670376 141.793254 414.344034 134.34961 418.017691 141.793254 426.23224 142.986898 420.288137 148.780966 421.691349 156.962323"></polygon>
                <rect id="Rectangle-4" fill="#4D7CFE" fill-rule="nonzero" x="737" y="266" width="6" height="22" rx="3"></rect>
                <rect id="Rectangle-4-Copy" fill="#4D7CFE" fill-rule="nonzero" x="737.066667" y="265.75" width="5.86666667" height="22.5" rx="2.93333333"></rect>
                <path d="M547.133333,22.8666667 L550.866667,22.8666667 C552.044874,22.8666667 553,23.8217925 553,25 C553,26.1782075 552.044874,27.1333333 550.866667,27.1333333 L547.133333,27.1333333 L547.133333,30.8666667 C547.133333,32.0448741 546.178207,33 545,33 C543.821793,33 542.866667,32.0448741 542.866667,30.8666667 L542.866667,27.1333333 L539.133333,27.1333333 C537.955126,27.1333333 537,26.1782075 537,25 C537,23.8217925 537.955126,22.8666667 539.133333,22.8666667 L542.866667,22.8666667 L542.866667,19.1333333 C542.866667,17.9551259 543.821793,17 545,17 C546.178207,17 547.133333,17.9551259 547.133333,19.1333333 L547.133333,22.8666667 Z" id="Combined-Shape-Copy-2" fill="#FF0000" transform="translate(545.000000, 25.000000) rotate(35.000000) translate(-545.000000, -25.000000) "></path>
                <path d="M792,192 C792.944749,190.666667 794.199634,190.654162 795.764656,191.962485 C797.132452,193.320828 798.328327,194 799.352281,194 C800.376235,194 801.568223,193.297034 802.928245,191.891101 C804.157972,190.630367 805.382232,190 806.601024,190 C807.819815,190 809.022896,190.630367 810.210264,191.891101 C811.474887,193.297034 812.705919,194 813.903361,194 C815.100803,194 816.293147,193.297034 817.480393,191.891101 C818.73361,190.630367 819.967083,190 821.180811,190 C822.394539,190 823.593065,190.630367 824.776389,191.891101 C825.48341,192.8564 826.224614,193.339049 827,193.339049" id="Path-6-Copy" stroke="#E9007F" stroke-width="4" stroke-linecap="round" stroke-linejoin="round" transform="translate(809.500000, 192.000000) rotate(-25.000000) translate(-809.500000, -192.000000) "></path>
                <circle id="Oval-3" stroke="#00FF89" stroke-width="4" cx="11.5" cy="586.5" r="11.5"></circle>
                <rect id="Rectangle-6" stroke="#FF0000" stroke-width="4" transform="translate(875.500000, 322.500000) rotate(6.000000) translate(-875.500000, -322.500000) " x="867" y="314" width="17" height="17"></rect>
            </g>
        </g>
    </g>
</svg>