<?xml version="1.0" encoding="UTF-8"?>
<svg width="25px" height="25px" viewBox="0 0 25 25" version="1.1" xmlns="http://www.w3.org/2000/svg" xmlns:xlink="http://www.w3.org/1999/xlink">
    <!-- Generator: Sketch 51.3 (57544) - http://www.bohemiancoding.com/sketch -->
    <title>coin_icon</title>
    <desc>Created with Sketch.</desc>
    <defs></defs>
    <g id="UI" stroke="none" stroke-width="1" fill="none" fill-rule="evenodd">
        <g id="Main-Dashboard" transform="translate(-1197.000000, -24.000000)">
            <g id="coin_icon" transform="translate(1197.000000, 24.000000)">
                <circle id="Oval" fill="#FCB038" fill-rule="nonzero" cx="12.5035135" cy="12.5608108" r="12.4391892"></circle>
                <path d="M12.5031081,0.123108108 C11.1671622,0.123108108 9.88081081,0.334594595 8.67472973,0.724324324 C13.6708108,2.33905405 17.2848649,7.02783784 17.2848649,12.5614865 C17.2848649,18.0951351 13.6709459,22.7839189 8.67472973,24.3986486 C9.88081081,24.7885135 11.1671622,24.9998649 12.5031081,24.9998649 C19.3727027,24.9998649 24.9416216,19.4309459 24.9416216,12.5613514 C24.9416216,5.69175676 19.3727027,0.123108108 12.5031081,0.123108108 Z" id="Shape" fill="#FD8F31" fill-rule="nonzero"></path>
                <circle id="Oval" fill="#FFE285" fill-rule="nonzero" cx="12.5035135" cy="12.5608108" r="8.92567568"></circle>
                <path d="M15.2505,10.1235 C15.1881664,10.2028337 15.1272503,10.2651664 15.06775,10.3105 C15.0082497,10.3558336 14.9218339,10.3785 14.8085,10.3785 C14.7008328,10.3785 14.5960005,10.345917 14.494,10.28075 C14.3919995,10.215583 14.2701674,10.1419171 14.1285,10.05975 C13.9868326,9.97758292 13.818251,9.90391699 13.62275,9.83875 C13.427249,9.77358301 13.1850014,9.741 12.896,9.741 C12.5276648,9.741 12.2046681,9.80758267 11.927,9.94075 C11.6493319,10.0739173 11.4184176,10.2651654 11.23425,10.5145 C11.0500824,10.7638346 10.9126671,11.0655816 10.822,11.41975 C10.7313329,11.7739184 10.686,12.1748311 10.686,12.6225 C10.686,13.087169 10.7355828,13.5008315 10.83475,13.8635 C10.9339172,14.2261685 11.0769991,14.5307488 11.264,14.77725 C11.4510009,15.0237512 11.6776653,15.2107494 11.944,15.33825 C12.2103347,15.4657506 12.510665,15.5295 12.845,15.5295 C13.179335,15.5295 13.4499156,15.4884171 13.65675,15.40625 C13.8635844,15.3240829 14.0378326,15.2334172 14.1795,15.13425 C14.3211674,15.0350828 14.4444161,14.9444171 14.54925,14.86225 C14.6540839,14.7800829 14.771666,14.739 14.902,14.739 C15.0720008,14.739 15.1994996,14.804166 15.2845,14.9345 L15.888,15.6995 C15.6556655,15.9715014 15.4035014,16.1995824 15.1315,16.38375 C14.8594986,16.5679176 14.5775848,16.7152494 14.28575,16.82575 C13.9939152,16.9362506 13.6921682,17.0141664 13.3805,17.0595 C13.0688318,17.1048336 12.7600015,17.1275 12.454,17.1275 C11.915664,17.1275 11.4085024,17.0269177 10.9325,16.82575 C10.4564976,16.6245823 10.0414184,16.3313353 9.68725,15.946 C9.33308156,15.5606647 9.05258437,15.0889195 8.84575,14.53075 C8.63891563,13.9725805 8.5355,13.3365036 8.5355,12.6225 C8.5355,11.9821635 8.62758241,11.3885861 8.81175,10.84175 C8.99591759,10.2949139 9.26649821,9.821752 9.6235,9.42225 C9.98050178,9.022748 10.4224974,8.7096678 10.9495,8.483 C11.4765026,8.2563322 12.0828299,8.143 12.7685,8.143 C13.4201699,8.143 13.9910809,8.24783229 14.48125,8.4575 C14.9714191,8.66716772 15.411998,8.96749805 15.803,9.3585 L15.2505,10.1235 Z" id="c" fill="#FD8F31"></path>
            </g>
        </g>
    </g>
</svg>