<?xml version="1.0" encoding="UTF-8"?>
<svg width="35px" height="35px" viewBox="0 0 35 35" version="1.1" xmlns="http://www.w3.org/2000/svg" xmlns:xlink="http://www.w3.org/1999/xlink">
    <!-- Generator: Sketch 51.3 (57544) - http://www.bohemiancoding.com/sketch -->
    <title>design</title>
    <desc>Created with Sketch.</desc>
    <defs></defs>
    <g id="UI" stroke="none" stroke-width="1" fill="none" fill-rule="evenodd">
        <g id="interest-Screen" transform="translate(-185.000000, -597.000000)">
            <g id="Group-4-Copy-4" transform="translate(135.000000, 597.000000)">
                <g id="design" transform="translate(50.000000, 0.000000)">
                    <circle id="Oval-7" fill="#2C344F" fill-rule="nonzero" cx="17.5" cy="17.5" r="17.5"></circle>
                    <path d="M25.1818182,10 L8.81818182,10 C7.81818182,10 7,10.8181818 7,11.8181818 L7,22.7272727 C7,23.7272727 7.81818182,24.5454545 8.81818182,24.5454545 L13.3636364,24.5454545 L13.3636364,26.3636364 L20.6363636,26.3636364 L20.6363636,24.5454545 L25.1818182,24.5454545 C26.1818182,24.5454545 26.9909091,23.7272727 26.9909091,22.7272727 L27,11.8181818 C27,10.8181818 26.1818182,10 25.1818182,10 L25.1818182,10 Z M25.1818182,22.7272727 L8.81818182,22.7272727 L8.81818182,11.8181818 L25.1818182,11.8181818 L25.1818182,22.7272727 L25.1818182,22.7272727 Z M23.3636364,14.5454545 L13.3636364,14.5454545 L13.3636364,16.3636364 L23.3636364,16.3636364 L23.3636364,14.5454545 L23.3636364,14.5454545 Z M23.3636364,18.1818182 L13.3636364,18.1818182 L13.3636364,20 L23.3636364,20 L23.3636364,18.1818182 L23.3636364,18.1818182 Z M12.4545455,14.5454545 L10.6363636,14.5454545 L10.6363636,16.3636364 L12.4545455,16.3636364 L12.4545455,14.5454545 L12.4545455,14.5454545 Z M12.4545455,18.1818182 L10.6363636,18.1818182 L10.6363636,20 L12.4545455,20 L12.4545455,18.1818182 L12.4545455,18.1818182 Z" id="Icon" fill="#FAFAFA"></path>
                </g>
            </g>
        </g>
    </g>
</svg>