<?xml version="1.0" encoding="utf-8"?>
<!-- Generator: Adobe Illustrator 21.1.0, SVG Export Plug-In . SVG Version: 6.00 Build 0)  -->
<svg version="1.1" id="Layer_1" xmlns="http://www.w3.org/2000/svg" xmlns:xlink="http://www.w3.org/1999/xlink" x="0px" y="0px"
	 viewBox="0 0 51 56" style="enable-background:new 0 0 51 56;" xml:space="preserve">
<style type="text/css">
	.st0{fill:#FFFFFF;}
</style>
<title>Artboard 1</title>
<g id="UI">
	<g id="landing-page">
		<g id="Group-4">
			<g id="venus_female">
				<path id="SVGCleanerId_0" class="st0" d="M43.5,21c0.1-9.9-8-18-17.9-18.1s-18,8-18.1,17.9c0,9,6.5,16.6,15.4,17.9v3.4h-3.2
					c-1.4,0-2.6,1.2-2.6,2.6c0,1.4,1.2,2.6,2.6,2.6c0,0,0,0,0,0h3.2v3.2c0,1.4,1.2,2.6,2.6,2.6s2.6-1.2,2.6-2.6l0,0v-3.2h3.2
					c1.4,0,2.6-1.2,2.6-2.6c0-1.4-1.2-2.6-2.6-2.6c0,0,0,0,0,0h-3.2v-3.4C36.9,37.4,43.5,29.9,43.5,21z M25.5,33.8
					c-7.1,0-12.8-5.8-12.8-12.8S18.5,8.2,25.6,8.2c7.1,0,12.8,5.7,12.8,12.8C38.3,28,32.5,33.7,25.5,33.8L25.5,33.8z"/>
			</g>
		</g>
	</g>
</g>
</svg>
