<?xml version="1.0" encoding="UTF-8"?>
<svg width="70px" height="73px" viewBox="0 0 70 73" version="1.1" xmlns="http://www.w3.org/2000/svg" xmlns:xlink="http://www.w3.org/1999/xlink">
    <!-- Generator: Sketch 51.3 (57544) - http://www.bohemiancoding.com/sketch -->
    <title>friendship_zone</title>
    <desc>Created with Sketch.</desc>
    <defs></defs>
    <g id="UI" stroke="none" stroke-width="1" fill="none" fill-rule="evenodd">
        <g id="Main-Dashboard" transform="translate(-785.000000, -490.000000)" fill-rule="nonzero">
            <g id="friendship-Zone" transform="translate(663.000000, 456.000000)">
                <g id="friendship_zone" transform="translate(122.000000, 34.000000)">
                    <path d="M4.96209677,18.5986895 L5.77415323,25.2121371 L2.65675403,25.594879 C1.18844758,25.7751008 0.144375,27.1115927 0.324596774,28.5798992 C0.504818548,30.0482056 1.84131048,31.0922782 3.30961694,30.9120565 L6.42701613,30.5293145 L6.759375,33.2361694 C7.55040323,39.6781452 13.41375,44.2590524 19.8557258,43.4681653 C26.2977016,42.6771371 30.8786089,36.8137903 30.0877218,30.3718145 L28.2904435,15.7343347 L4.96209677,18.5986895 Z" id="Shape" fill="#53A8E2"></path>
                    <path d="M24.6081048,16.1865121 L26.4053831,30.8238508 C27.1193548,36.6390726 23.4550806,41.9816532 17.9966331,43.5481855 C18.6081452,43.5696371 19.2289718,43.5450806 19.8557258,43.4680242 C26.2977016,42.676996 30.8786089,36.8136492 30.0877218,30.3716734 L28.2904435,15.7341935 L24.6081048,16.1865121 Z" id="Shape" fill="#53A8E2"></path>
                    <g id="Group" transform="translate(11.008065, 23.850806)" fill="#FFFFFF">
                        <path d="M1.06947581,4.34451613 C0.841552419,4.34451613 0.612076613,4.27127016 0.41858871,4.12012097 C-0.0420564516,3.76024194 -0.123770161,3.09510081 0.236108871,2.63445565 C0.754334677,1.97100806 1.50006048,1.54917339 2.33568548,1.44657258 C3.17145161,1.34439516 3.99691532,1.57302419 4.66022177,2.09125 C5.12086694,2.45112903 5.20258065,3.11641129 4.84270161,3.57691532 C4.48268145,4.03756048 3.81754032,4.11927419 3.35703629,3.75939516 C3.13927419,3.58919355 2.86788306,3.51397177 2.59366935,3.54770161 C2.31931452,3.58143145 2.07445565,3.71987903 1.90425403,3.93778226 C1.69552419,4.20465726 1.38405242,4.34451613 1.06947581,4.34451613 Z" id="Shape"></path>
                        <path d="M12.2634073,2.96991935 C12.0354839,2.96991935 11.8060081,2.89653226 11.6125202,2.74552419 C11.151875,2.38564516 11.0701613,1.7203629 11.4301815,1.25971774 C12.5002218,-0.109798387 14.4849194,-0.353387097 15.8542944,0.716512097 C16.3149395,1.07639113 16.3966532,1.74153226 16.0367742,2.20217742 C15.6768952,2.66282258 15.0116129,2.74453629 14.5511089,2.38465726 C14.1014718,2.03324597 13.4497379,2.11326613 13.0984677,2.56304435 C12.8894556,2.83034274 12.5779839,2.96991935 12.2634073,2.96991935 Z" id="Shape"></path>
                    </g>
                    <path d="M21.3032863,37.1997782 C19.2655242,37.45 17.4108065,36.0008871 17.1605847,33.963125 L17.0361089,32.9495363 C16.9982863,32.6410282 17.2176008,32.3601815 17.5261089,32.3223589 L23.7882863,31.5534879 C24.0967944,31.5156653 24.3776411,31.7349798 24.4154637,32.0434879 L24.5399395,33.0570766 C24.7900202,35.0948387 23.3410484,36.9496976 21.3032863,37.1997782 Z" id="Shape" fill="#FFFFFF"></path>
                    <path d="M28.449496,17.030746 L7.2328629,19.6357056 C6.06586694,19.7789516 5.23758065,20.8408065 5.38068548,22.0063911 L5.77429435,25.211996 L2.65675403,25.5947379 C2.41471774,25.6245161 2.18495968,25.6853427 1.96860887,25.7743952 L0.167802419,11.1077016 C-0.0869354839,9.03268145 1.38842742,7.14423387 3.46344758,6.88949597 L19.4141331,4.93104839 C23.0521573,4.48423387 26.3956452,2.79548387 27.8320565,0 C36.3302823,3.37933468 34.1163911,16.3348387 28.449496,17.030746 Z" id="Shape" fill="#53A8E2"></path>
                    <path d="M27.8320565,0 C27.4893952,0.666693548 27.0373589,1.2697379 26.4996573,1.80870968 C32.1609073,6.41854839 29.8564113,16.8578629 24.7852218,17.4805242 L28.449496,17.0306048 C34.1163911,16.3348387 36.3302823,3.37933468 27.8320565,0 Z" id="Shape" fill="#53A8E2"></path>
                    <path d="M65.0381855,47.2998185 L64.226129,53.9132661 L67.3435282,54.2960081 C68.8118347,54.4762298 69.8559073,55.8127218 69.6756855,57.2810282 C69.4954637,58.7493347 68.1589718,59.7934073 66.6906653,59.6131855 L63.5732661,59.2304435 L63.2409073,61.9372984 C62.449879,68.3792742 56.5865323,72.9601815 50.1445565,72.1692944 C43.7025806,71.3782661 39.1216734,65.5149194 39.9125605,59.0729435 L41.7098387,44.4354637 L65.0381855,47.2998185 Z" id="Shape" fill="#53A8E2"></path>
                    <g id="Group" transform="translate(42.620968, 52.500000)" fill="#FFFFFF">
                        <path d="M15.3017742,4.39645161 C14.9870565,4.39645161 14.6757258,4.25673387 14.4668548,3.98957661 C14.1155847,3.53993952 13.4639919,3.45991935 13.0142137,3.81118952 C12.5535685,4.17092742 11.8882863,4.08935484 11.5285484,3.62870968 C11.1686694,3.16806452 11.2503831,2.50292339 11.7110282,2.14304435 C13.0806855,1.07314516 15.0652419,1.316875 16.1351411,2.68625 C16.4950202,3.14689516 16.4133065,3.81217742 15.9528024,4.17205645 C15.7593145,4.32306452 15.5296976,4.39645161 15.3017742,4.39645161 Z" id="Shape"></path>
                        <path d="M4.10784274,3.02199597 C3.793125,3.02199597 3.48165323,2.88227823 3.27292339,2.61512097 C3.10272177,2.39735887 2.85800403,2.25877016 2.58350806,2.22504032 C2.30915323,2.19116935 2.03804435,2.26639113 1.82014113,2.43673387 C1.35935484,2.7966129 0.69421371,2.71489919 0.334475806,2.25425403 C-0.0254032258,1.79360887 0.0563104839,1.12846774 0.516955645,0.76858871 C1.1802621,0.250362903 2.00572581,0.0214516129 2.84149194,0.12391129 C3.67711694,0.226512097 4.42284274,0.648346774 4.94106855,1.31179435 C5.30094758,1.77243952 5.21923387,2.43758065 4.75858871,2.79745968 C4.56538306,2.94875 4.33576613,3.02199597 4.10784274,3.02199597 Z" id="Shape"></path>
                    </g>
                    <path d="M48.696996,65.9010484 C50.7347581,66.1512702 52.5894758,64.7021573 52.8396976,62.6643952 L52.9641734,61.6508065 C53.001996,61.3422984 52.7826815,61.0614516 52.4741734,61.023629 L46.211996,60.2547581 C45.9034879,60.2169355 45.6226411,60.43625 45.5848185,60.7447581 L45.4603427,61.7583468 C45.2102621,63.7961089 46.6592339,65.6508266 48.696996,65.9010484 Z" id="Shape" fill="#FFFFFF"></path>
                    <path d="M66.5368347,35.590625 L51.5533065,33.7510081 C50.6877621,33.6447379 49.9081653,33.1797177 49.3984073,32.4722379 C47.999254,30.5305847 45.7804234,29.1885887 43.173629,28.9990524 C38.8632661,28.6856048 34.9690927,31.7651815 34.2768548,36.0310887 C33.508125,40.7686492 36.8315726,45.1526815 41.5506452,45.7320161 L62.7672782,48.3371169 C63.9334274,48.4803629 64.7627016,49.5416532 64.6194556,50.7078024 L64.2258468,53.9134073 L67.3433871,54.2961492 C67.5854234,54.3259274 67.8151815,54.386754 68.0315323,54.4758065 L69.8323387,39.8089718 C70.0872177,37.7339516 68.6117137,35.845504 66.5368347,35.590625 Z" id="Shape" fill="#53A8E2"></path>
                    <g id="Group" transform="translate(8.891129, 8.044355)" fill="#53A8E2">
                        <path d="M45.5887702,4.83028226 C45.0042137,4.83028226 44.5303024,4.35637097 44.5303024,3.77181452 L44.5303024,1.10264113 C44.5303024,0.518084677 45.0042137,0.0441733871 45.5887702,0.0441733871 C46.1733266,0.0441733871 46.6472379,0.518084677 46.6472379,1.10264113 L46.6472379,3.77181452 C46.6472379,4.35637097 46.1733266,4.83028226 45.5887702,4.83028226 Z" id="Shape"></path>
                        <path d="M45.5887702,13.0355242 C45.0042137,13.0355242 44.5303024,12.5616129 44.5303024,11.9770565 L44.5303024,9.30788306 C44.5303024,8.72332661 45.0042137,8.24941532 45.5887702,8.24941532 C46.1733266,8.24941532 46.6472379,8.72332661 46.6472379,9.30788306 L46.6472379,11.9770565 C46.6472379,12.5616129 46.1733266,13.0355242 45.5887702,13.0355242 Z" id="Shape"></path>
                        <path d="M51.0260484,7.59824597 L48.356875,7.59824597 C47.7723185,7.59824597 47.2984073,7.12433468 47.2984073,6.53977823 C47.2984073,5.95522177 47.7723185,5.48131048 48.356875,5.48131048 L51.0260484,5.48131048 C51.6106048,5.48131048 52.0845161,5.95522177 52.0845161,6.53977823 C52.0845161,7.12433468 51.6106048,7.59824597 51.0260484,7.59824597 Z" id="Shape"></path>
                        <path d="M42.8208065,7.59824597 L40.1516331,7.59824597 C39.5670766,7.59824597 39.0931653,7.12433468 39.0931653,6.53977823 C39.0931653,5.95522177 39.5670766,5.48131048 40.1516331,5.48131048 L42.8208065,5.48131048 C43.4053629,5.48131048 43.8792742,5.95522177 43.8792742,6.53977823 C43.8792742,7.12433468 43.4053629,7.59824597 42.8208065,7.59824597 Z" id="Shape"></path>
                        <path d="M6.62925403,47.9199395 C6.04469758,47.9199395 5.57078629,47.4460282 5.57078629,46.8614718 L5.57078629,44.1922984 C5.57078629,43.6077419 6.04469758,43.1338306 6.62925403,43.1338306 C7.21381048,43.1338306 7.68772177,43.6077419 7.68772177,44.1922984 L7.68772177,46.8614718 C7.68772177,47.4460282 7.21381048,47.9199395 6.62925403,47.9199395 Z" id="Shape"></path>
                        <path d="M6.62925403,56.1253226 C6.04469758,56.1253226 5.57078629,55.6514113 5.57078629,55.0668548 L5.57078629,52.3976815 C5.57078629,51.813125 6.04469758,51.3392137 6.62925403,51.3392137 C7.21381048,51.3392137 7.68772177,51.813125 7.68772177,52.3976815 L7.68772177,55.0668548 C7.68772177,55.6514113 7.21381048,56.1253226 6.62925403,56.1253226 Z" id="Shape"></path>
                        <path d="M12.0665323,50.6880444 L9.39735887,50.6880444 C8.81280242,50.6880444 8.33889113,50.2141331 8.33889113,49.6295766 C8.33889113,49.0450202 8.81280242,48.5711089 9.39735887,48.5711089 L12.0665323,48.5711089 C12.6510887,48.5711089 13.125,49.0450202 13.125,49.6295766 C13.125,50.2141331 12.6510887,50.6880444 12.0665323,50.6880444 Z" id="Shape"></path>
                        <path d="M3.86114919,50.6880444 L1.19197581,50.6880444 C0.607419355,50.6880444 0.133508065,50.2141331 0.133508065,49.6295766 C0.133508065,49.0450202 0.607419355,48.5711089 1.19197581,48.5711089 L3.86114919,48.5711089 C4.44570565,48.5711089 4.91961694,49.0450202 4.91961694,49.6295766 C4.91961694,50.2141331 4.44570565,50.6880444 3.86114919,50.6880444 Z" id="Shape"></path>
                    </g>
                </g>
            </g>
        </g>
    </g>
</svg>