<svg xmlns="http://www.w3.org/2000/svg" width="25" height="26" viewBox="0 0 25 26">
    <g fill="none" fill-rule="nonzero">
        <path fill="#FFF" d="M1.772 6.642l.29 2.362-1.113.137a.957.957 0 1 0 .233 1.899l1.113-.137.12.967a4.197 4.197 0 0 0 8.33-1.023l-.641-5.228-8.332 1.023z"/>
        <g fill="#53A8E2">
            <path d="M4.313 10.07a.378.378 0 0 1-.298-.61c.186-.238.452-.389.75-.425.3-.037.594.045.83.23a.378.378 0 0 1-.465.596.367.367 0 0 0-.518.063.378.378 0 0 1-.299.146zM8.311 9.579a.377.377 0 0 1-.297-.611 1.127 1.127 0 0 1 1.58-.194.378.378 0 1 1-.466.596.37.37 0 0 0-.519.064.378.378 0 0 1-.298.145z"/>
        </g>
        <path fill="#53A8E2" d="M7.608 13.286a1.328 1.328 0 0 1-1.48-1.156l-.044-.362a.201.201 0 0 1 .175-.224l2.237-.275c.11-.013.21.065.224.175l.044.362c.09.728-.428 1.39-1.156 1.48z"/>
        <path fill="#FFF" d="M10.16 6.082l-7.577.93a.76.76 0 0 0-.661.847l.14 1.145-1.113.137a.947.947 0 0 0-.246.064L.06 3.967a1.352 1.352 0 0 1 1.177-1.506l5.697-.7C8.233 1.601 9.427.998 9.94 0c3.035 1.207 2.244 5.834.22 6.082z"/>
        <path fill="#FFF" d="M9.94 0a2.596 2.596 0 0 1-.476.646c2.022 1.646 1.199 5.375-.612 5.597l1.309-.16c2.023-.25 2.814-4.876-.221-6.083zM23.228 16.893l-.29 2.362 1.113.136a.957.957 0 1 1-.233 1.9l-1.113-.137-.119.966a4.197 4.197 0 0 1-8.332-1.023l.642-5.227 8.332 1.023z"/>
        <g fill="#53A8E2">
            <path d="M20.687 20.32a.377.377 0 0 1-.298-.145.37.37 0 0 0-.52-.064.378.378 0 0 1-.465-.596 1.127 1.127 0 0 1 1.58.194.378.378 0 0 1-.297.611zM16.689 19.83a.377.377 0 0 1-.298-.146.367.367 0 0 0-.52-.064.378.378 0 1 1-.465-.596c.237-.185.532-.266.83-.23.299.037.565.188.75.424a.378.378 0 0 1-.297.611z"/>
        </g>
        <path fill="#53A8E2" d="M17.392 23.536c.728.09 1.39-.428 1.48-1.156l.044-.362a.201.201 0 0 0-.175-.224l-2.237-.274a.201.201 0 0 0-.224.175l-.044.362c-.09.727.428 1.39 1.156 1.48z"/>
        <path fill="#FFF" d="M23.763 12.71l-5.351-.656a1.117 1.117 0 0 1-.77-.457 2.996 2.996 0 0 0-2.223-1.24 3.014 3.014 0 0 0-3.177 2.511 3.003 3.003 0 0 0 2.598 3.465l7.577.93a.76.76 0 0 1 .661.847l-.14 1.145 1.113.136c.087.011.169.033.246.065l.643-5.239a1.352 1.352 0 0 0-1.177-1.506z"/>
    </g>
</svg>
