<svg xmlns="http://www.w3.org/2000/svg" width="50" height="50" viewBox="0 0 50 50">
    <path fill="#007FFF" fill-rule="nonzero" d="M13.223 48.283a6.481 6.481 0 0 1-.755-.31c-2.274-1.095-4.334-2.594-6.18-4.497l.043-.057-.158.033A21.65 21.65 0 0 1 0 28.296c0-5.891 2.357-11.24 6.173-15.155a21.769 21.769 0 0 1 6.218-4.456 21.505 21.505 0 0 1 9.275-2.093c4.875 0 9.378 1.622 13.002 4.353l4.694-4.702h-2.316A3.119 3.119 0 0 1 33.93 3.12 3.119 3.119 0 0 1 37.046 0l9.958.006c.062.003.124.004.184.01.06.005.12.016.301.044.062.012.122.029.296.074.058.017.114.04.288.103.053.022.105.048.277.13.05.027.099.058.262.157.056.038.11.08.245.182.079.065.156.135.23.209.074.074.143.151.276.32.039.052.078.103.189.28.027.045.056.09.145.27.022.048.046.095.115.278.018.051.038.102.09.292.013.053.027.104.037.157.012.054.018.11.046.302.01.101.015.204.015.31v9.853a3.118 3.118 0 0 1-3.116 3.12 3.119 3.119 0 0 1-3.116-3.12v-2.32l-4.706 4.715a21.614 21.614 0 0 1 4.271 12.924C43.333 40.264 33.613 50 21.666 50a21.51 21.51 0 0 1-8.443-1.717zm5.519-4.805c.947.183 1.925.28 2.925.28 8.51 0 15.434-6.936 15.434-15.462 0-8.525-6.924-15.461-15.434-15.461a15.355 15.355 0 0 0-9.275 3.112c-3.739 2.825-6.16 7.309-6.16 12.35 0 4.782 2.18 9.064 5.596 11.902.22.095.433.226.64.393 1.644 1.33 3.735 2.29 6.274 2.884v.002z"/>
</svg>
