<?xml version="1.0" encoding="utf-8"?>
<!-- Generator: Adobe Illustrator 21.1.0, SVG Export Plug-In . SVG Version: 6.00 Build 0)  -->
<svg version="1.1" id="Layer_1" xmlns="http://www.w3.org/2000/svg" xmlns:xlink="http://www.w3.org/1999/xlink" x="0px" y="0px"
	 viewBox="0 0 50 50" style="enable-background:new 0 0 50 50;" xml:space="preserve">
<style type="text/css">
	.st0{fill:#FFFFFF;}
</style>
<path class="st0" d="M13.2,48.3c-0.3-0.1-0.5-0.2-0.8-0.3c-2.3-1.1-4.3-2.6-6.2-4.5l0-0.1l-0.2,0C2.2,39.4,0,34,0,28.3
	c0-5.9,2.4-11.2,6.2-15.2c1.8-1.8,3.9-3.3,6.2-4.5c2.9-1.4,6.1-2.1,9.3-2.1c4.9,0,9.4,1.6,13,4.4l4.7-4.7H37c-1.7,0-3.1-1.4-3.1-3.1
	c0,0,0,0,0,0C33.9,1.4,35.3,0,37,0l10,0c0.1,0,0.1,0,0.2,0c0.1,0,0.1,0,0.3,0c0.1,0,0.1,0,0.3,0.1c0.1,0,0.1,0,0.3,0.1
	c0.1,0,0.1,0,0.3,0.1c0,0,0.1,0.1,0.3,0.2c0.1,0,0.1,0.1,0.2,0.2c0.1,0.1,0.2,0.1,0.2,0.2s0.1,0.2,0.3,0.3c0,0.1,0.1,0.1,0.2,0.3
	c0,0,0.1,0.1,0.1,0.3c0,0,0,0.1,0.1,0.3c0,0.1,0,0.1,0.1,0.3c0,0.1,0,0.1,0,0.2c0,0.1,0,0.1,0,0.3c0,0.1,0,0.2,0,0.3V13
	c0,1.7-1.4,3.1-3.1,3.1h0c-1.7,0-3.1-1.4-3.1-3.1v-2.3l-4.7,4.7c2.8,3.7,4.3,8.3,4.3,12.9c0,12-9.7,21.7-21.7,21.7
	C18.8,50,15.9,49.4,13.2,48.3z M18.7,43.5c0.9,0.2,1.9,0.3,2.9,0.3c8.5,0,15.4-6.9,15.4-15.5c0-8.5-6.9-15.5-15.4-15.5
	c-3.3,0-6.6,1.1-9.3,3.1c-3.7,2.8-6.2,7.3-6.2,12.4c0,4.8,2.2,9.1,5.6,11.9c0.2,0.1,0.4,0.2,0.6,0.4C14.1,41.9,16.2,42.9,18.7,43.5
	C18.7,43.5,18.7,43.5,18.7,43.5z"/>
</svg>
