<svg xmlns="http://www.w3.org/2000/svg" width="56" height="57" viewBox="0 0 56 57">
    <path fill="#ECF3FA" fill-rule="nonzero" d="M42.058 4.168C28.732-3.526 11.656 1.05 3.962 14.376-3.732 27.702.843 44.778 14.17 52.472c13.326 7.694 30.402 3.119 38.096-10.208 7.694-13.326 3.118-30.402-10.208-38.096zm-2.325 1.611L33.73 16.174a48.599 48.599 0 0 1-7.103-5.242 30.103 30.103 0 0 1 3.416-2.658c3.727-2.461 7.136-3.3 9.689-2.495zm2.092 1.209c1.974 1.808 2.952 5.18 2.685 9.638a30.121 30.121 0 0 1-.598 4.301c-2.634-.87-5.362-2.053-8.088-3.544l6.001-10.395zm-7.57-3.39c-1.822.534-3.695 1.438-5.543 2.659-1.288.85-2.574 1.867-3.845 3.01-1.734-1.74-3.19-3.51-4.326-5.245 4.389-1.368 9.128-1.568 13.714-.424zm12.198 7.042c3.281 3.397 5.475 7.597 6.487 12.077-2.056-.089-4.319-.455-6.705-1.092.357-1.679.595-3.308.687-4.854.133-2.212-.02-4.285-.469-6.13zm6.913 14.502c.625 4.952-.17 10.12-2.615 14.852l-9.461-5.462c1.952-3.557 3.418-7.134 4.365-10.55 2.715.721 5.312 1.11 7.71 1.16zM18.218 4.872c1.276 2.04 2.921 4.086 4.896 6.072-2.49 2.531-4.859 5.595-6.968 9.071l-9.46-5.462c2.87-4.477 6.94-7.746 11.532-9.681zm6.652 7.742c2.232 2.011 4.797 3.922 7.651 5.655l-4.85 8.4-9.432-5.445c2.02-3.317 4.286-6.229 6.63-8.61zm18.464 10.68c-.89 3.215-2.277 6.629-4.137 10.03l-9.433-5.446 4.85-8.4c2.929 1.608 5.865 2.883 8.72 3.816zM5.477 16.646l9.461 5.462c-1.952 3.558-3.418 7.134-4.366 10.55-2.714-.72-5.311-1.11-7.71-1.16-.625-4.951.17-10.12 2.615-14.852zm11.554 6.67l9.432 5.446-4.85 8.4c-2.928-1.608-5.864-2.883-8.719-3.815.89-3.216 2.277-6.63 4.137-10.03zm11.525 6.655l9.432 5.445c-2.018 3.317-4.286 6.23-6.63 8.61-2.232-2.011-4.797-3.922-7.652-5.655l4.85-8.4zm11.525 6.654l9.461 5.462c-2.87 4.477-6.94 7.746-11.533 9.681-1.276-2.04-2.92-4.086-4.895-6.072 2.49-2.531 4.858-5.595 6.967-9.071zm-19.677 2.633l-6.002 10.395c-1.973-1.808-2.952-5.18-2.684-9.639.081-1.354.285-2.8.597-4.3 2.635.87 5.363 2.052 8.089 3.544zm2.093 1.208a48.599 48.599 0 0 1 7.102 5.242 30.101 30.101 0 0 1-3.415 2.659c-3.727 2.46-7.136 3.3-9.689 2.494l6.002-10.395zm-12.504-5.45c-.357 1.678-.595 3.307-.688 4.854-.132 2.21.02 4.284.47 6.13-3.281-3.397-5.476-7.597-6.487-12.076 2.056.088 4.319.455 6.705 1.092zM31.36 47.374c1.735 1.74 3.19 3.509 4.327 5.245-4.389 1.367-9.128 1.567-13.715.423 1.823-.534 3.695-1.438 5.544-2.658 1.288-.851 2.574-1.867 3.844-3.01z"/>
</svg>
