<?xml version="1.0" encoding="UTF-8"?>
<svg width="70px" height="70px" viewBox="0 0 70 70" version="1.1" xmlns="http://www.w3.org/2000/svg" xmlns:xlink="http://www.w3.org/1999/xlink">
    <!-- Generator: Sketch 51.3 (57544) - http://www.bohemiancoding.com/sketch -->
    <title>group_chat</title>
    <desc>Created with Sketch.</desc>
    <defs></defs>
    <g id="UI" stroke="none" stroke-width="1" fill="none" fill-rule="evenodd">
        <g id="Main-Dashboard" transform="translate(-456.000000, -488.000000)" fill="#C387EE" fill-rule="nonzero">
            <g id="group-chat" transform="translate(334.000000, 456.000000)">
                <g id="group_chat" transform="translate(122.000000, 32.000000)">
                    <path d="M19.3437891,42.6126367 C19.3437891,40.4563086 19.7821094,38.400332 20.5741211,36.5290625 C19.0413672,35.652832 17.2694922,35.1492969 15.3811328,35.1492969 C9.59123047,35.1492969 4.88085937,39.859668 4.88085937,45.6494336 C4.88085937,49.031582 6.48976562,52.0433594 8.98078125,53.9649414 C3.6859375,56.3977148 0,61.7508008 0,67.9492188 L0,70 L13.810918,70 L13.810918,68.0233203 C13.810918,63.7358203 15.0907422,59.6022656 17.5120312,56.0695898 C18.7613672,54.246582 20.2696484,52.6456055 21.9838281,51.3089063 C20.2852344,48.7704492 19.3437891,45.7563477 19.3437891,42.6126367 Z" id="Shape"></path>
                    <path d="M61.0193555,53.9648047 C63.5102344,52.0430859 65.1192773,49.0314453 65.1192773,45.6492969 C65.1192773,39.8595312 60.4089062,35.1491602 54.6191406,35.1491602 C52.7307812,35.1491602 50.9589062,35.652832 49.4260156,36.5289258 C50.2180273,38.4000586 50.6563477,40.4560352 50.6563477,42.6125 C50.6563477,45.7562109 49.7149023,48.7704492 48.0163086,51.3087695 C49.7304883,52.6454687 51.2386328,54.246582 52.4881055,56.0694531 C54.9093945,59.6021289 56.1892187,63.7356836 56.1892187,68.0231836 L56.1892187,70 L70,70 L70,67.9492188 C70,61.7508008 66.3140625,56.3977148 61.0193555,53.9648047 Z" id="Shape"></path>
                    <path d="M41.4447852,52.1986719 C44.5251953,50.1210938 46.5549219,46.5994922 46.5549219,42.6125 C46.5549219,36.2411328 41.3715039,31.0577148 35,31.0577148 C28.6286328,31.0577148 23.4452148,36.2411328 23.4452148,42.6125 C23.4452148,46.5993555 25.4749414,50.1210938 28.5553516,52.1986719 C22.3186523,54.7479297 17.9124805,60.8801758 17.9124805,68.0231836 L17.9124805,70 L52.0875195,70 L52.0875195,68.0233203 C52.0875195,60.8803125 47.6813477,54.7479297 41.4447852,52.1986719 Z" id="Shape"></path>
                    <path d="M35.1845703,0 L2.92304687,0 L2.92304687,23.2920898 L14.9538867,23.2920898 L25.3011719,28.8458789 L25.2243359,23.2920898 L35.1845703,23.2920898 L35.1845703,0 Z M25.7586328,13.4882617 L12.3489844,13.4882617 L12.3489844,9.38669922 L25.7586328,9.38669922 L25.7586328,13.4882617 Z" id="Shape"></path>
                    <path d="M39.8551563,8.78404297 L39.8551563,28.6416211 L48.027793,28.6416211 L47.9613477,33.4526172 L56.9247656,28.6416211 L67.0772266,28.6416211 L67.0772266,8.78404297 L39.8551563,8.78404297 Z M58.9710352,20.5924414 L47.9613477,20.5924414 L47.9613477,16.4908789 L58.9710352,16.4908789 L58.9710352,20.5924414 Z" id="Shape"></path>
                </g>
            </g>
        </g>
    </g>
</svg>