<svg xmlns="http://www.w3.org/2000/svg" width="20" height="20" viewBox="0 0 20 20">
    <g fill="#FFF" fill-rule="nonzero">
        <path d="M5.527 12.175c0-.616.125-1.203.351-1.738a2.98 2.98 0 0 0-1.483-.394c-1.655 0-3 1.345-3 3 0 .966.46 1.827 1.17 2.376A4.4 4.4 0 0 0 0 19.414V20h3.946v-.565c0-1.225.366-2.406 1.057-3.415.357-.521.788-.978 1.278-1.36a4.464 4.464 0 0 1-.754-2.485zM17.434 15.419a2.996 2.996 0 0 0 1.172-2.376c0-1.655-1.346-3-3-3-.54 0-1.046.144-1.484.394a4.463 4.463 0 0 1-.403 4.223c.49.382.92.839 1.278 1.36a6.016 6.016 0 0 1 1.057 3.415V20H20v-.586a4.4 4.4 0 0 0-2.566-3.995z"/>
        <path d="M11.841 14.914a3.3 3.3 0 1 0-3.682 0 4.89 4.89 0 0 0-3.041 4.521V20h9.764v-.565a4.89 4.89 0 0 0-3.04-4.521zM10.053 0H.835v6.655h3.438l2.956 1.587-.022-1.587h2.846V0zM7.36 3.854H3.528V2.682H7.36v1.172zM11.387 2.51v5.673h2.335l-.019 1.375 2.561-1.375h2.9V2.51h-7.777zm5.462 3.374h-3.146V4.712h3.146v1.172z"/>
    </g>
</svg>
