<svg xmlns="http://www.w3.org/2000/svg" width="26" height="18" viewBox="0 0 26 18">
    <g fill="none" fill-rule="evenodd">
        <path d="M-1-5h28v28H-1z"/>
        <path fill="#B5B5B8" d="M18.25 10.167c-1.4 0-3.582.396-5.25 1.166-1.668-.781-3.85-1.166-5.25-1.166-2.532 0-7.583 1.26-7.583 3.791v3.209h25.666v-3.209c0-2.531-5.051-3.791-7.583-3.791zm-4.667 5.25H1.917v-1.459c0-.63 2.986-2.041 5.833-2.041s5.833 1.411 5.833 2.041v1.459zm10.5 0h-8.75v-1.459c0-.536-.233-1.003-.606-1.423 1.026-.35 2.286-.618 3.523-.618 2.847 0 5.833 1.411 5.833 2.041v1.459zM7.75 9a4.088 4.088 0 0 0 4.083-4.083A4.088 4.088 0 0 0 7.75.833a4.088 4.088 0 0 0-4.083 4.084A4.088 4.088 0 0 0 7.75 9zm0-6.417a2.34 2.34 0 0 1 2.333 2.334A2.34 2.34 0 0 1 7.75 7.25a2.34 2.34 0 0 1-2.333-2.333A2.34 2.34 0 0 1 7.75 2.583zM18.25 9a4.088 4.088 0 0 0 4.083-4.083A4.088 4.088 0 0 0 18.25.833a4.088 4.088 0 0 0-4.083 4.084A4.088 4.088 0 0 0 18.25 9zm0-6.417a2.34 2.34 0 0 1 2.333 2.334A2.34 2.34 0 0 1 18.25 7.25a2.34 2.34 0 0 1-2.333-2.333 2.34 2.34 0 0 1 2.333-2.334z"/>
    </g>
</svg>
