<?xml version="1.0" encoding="UTF-8"?>
<svg width="26px" height="18px" viewBox="0 0 26 18" version="1.1" xmlns="http://www.w3.org/2000/svg" xmlns:xlink="http://www.w3.org/1999/xlink">
    <!-- Generator: Sketch 51.3 (57544) - http://www.bohemiancoding.com/sketch -->
    <title>ic_people_outline</title>
    <desc>Created with Sketch.</desc>
    <defs></defs>
    <g id="UI" stroke="none" stroke-width="1" fill="none" fill-rule="evenodd">
        <g id="Main-Dashboard" transform="translate(-1026.000000, -27.000000)">
            <g id="ic_people_outline" transform="translate(1025.000000, 22.000000)">
                <polygon id="Bounds" points="0 0 28 0 28 28 0 28"></polygon>
                <path d="M19.25,15.1666667 C17.85,15.1666667 15.6683333,15.5633333 14,16.3333333 C12.3316667,15.5516667 10.15,15.1666667 8.75,15.1666667 C6.21833333,15.1666667 1.16666667,16.4266667 1.16666667,18.9583333 L1.16666667,22.1666667 L26.8333333,22.1666667 L26.8333333,18.9583333 C26.8333333,16.4266667 21.7816667,15.1666667 19.25,15.1666667 L19.25,15.1666667 Z M14.5833333,20.4166667 L2.91666667,20.4166667 L2.91666667,18.9583333 C2.91666667,18.3283333 5.90333333,16.9166667 8.75,16.9166667 C11.5966667,16.9166667 14.5833333,18.3283333 14.5833333,18.9583333 L14.5833333,20.4166667 L14.5833333,20.4166667 Z M25.0833333,20.4166667 L16.3333333,20.4166667 L16.3333333,18.9583333 C16.3333333,18.4216667 16.1,17.955 15.7266667,17.535 C16.7533333,17.185 18.0133333,16.9166667 19.25,16.9166667 C22.0966667,16.9166667 25.0833333,18.3283333 25.0833333,18.9583333 L25.0833333,20.4166667 L25.0833333,20.4166667 Z M8.75,14 C11.0016667,14 12.8333333,12.1683333 12.8333333,9.91666667 C12.8333333,7.665 11.0016667,5.83333333 8.75,5.83333333 C6.49833333,5.83333333 4.66666667,7.665 4.66666667,9.91666667 C4.66666667,12.1683333 6.49833333,14 8.75,14 L8.75,14 Z M8.75,7.58333333 C10.0333333,7.58333333 11.0833333,8.63333333 11.0833333,9.91666667 C11.0833333,11.2 10.0333333,12.25 8.75,12.25 C7.46666667,12.25 6.41666667,11.2 6.41666667,9.91666667 C6.41666667,8.63333333 7.46666667,7.58333333 8.75,7.58333333 L8.75,7.58333333 Z M19.25,14 C21.5016667,14 23.3333333,12.1683333 23.3333333,9.91666667 C23.3333333,7.665 21.5016667,5.83333333 19.25,5.83333333 C16.9983333,5.83333333 15.1666667,7.665 15.1666667,9.91666667 C15.1666667,12.1683333 16.9983333,14 19.25,14 L19.25,14 Z M19.25,7.58333333 C20.5333333,7.58333333 21.5833333,8.63333333 21.5833333,9.91666667 C21.5833333,11.2 20.5333333,12.25 19.25,12.25 C17.9666667,12.25 16.9166667,11.2 16.9166667,9.91666667 C16.9166667,8.63333333 17.9666667,7.58333333 19.25,7.58333333 L19.25,7.58333333 Z" id="Icon" fill="#B5B5B8"></path>
            </g>
        </g>
    </g>
</svg>