<svg xmlns="http://www.w3.org/2000/svg" xmlns:xlink="http://www.w3.org/1999/xlink" width="34" height="39" viewBox="0 0 34 39">
    <defs>
        <path id="a" d="M.224.256h1.653V1.91H.224z"/>
    </defs>
    <g fill="none" fill-rule="evenodd">
        <path fill="#3CB919" d="M17 13.51c-8.585 0-14.473 3.689-12.808 10.367 2 8.022 9.383 14.589 12.808 14.589 3.425 0 10.808-6.567 12.808-14.59C31.473 17.2 25.585 13.51 17 13.51m14.677 8.684C29.385 32.48 20.925 39 17 39c-3.925 0-12.385-6.52-14.677-16.807C.416 13.63 7.162 7 17 7s16.584 6.63 14.677 15.193M27 9.515L33 1l-4.335 10z"/>
        <g transform="translate(32)">
            <mask id="b" fill="#fff">
                <use xlink:href="#a"/>
            </mask>
            <path fill="#3CB919" d="M1.877 1.083a.827.827 0 1 1-1.653 0 .827.827 0 0 1 1.653 0" mask="url(#b)"/>
        </g>
        <path fill="#3CB919" d="M7 9.515L1 1l4.335 10z"/>
        <path fill="#3CB919" d="M0 2a1 1 0 1 0 2 0 1 1 0 0 0-2 0"/>
        <path fill="#007FFF" d="M17 24.534s-1.727.987-2.108 3c0 0 .965-.525 2.108-.525 1.144 0 2.108.524 2.108.524-.38-2.012-2.108-2.999-2.108-2.999m1.513-1.674s2.288 1.07 5.034.869c2.552-.187 4.304-1.9 3.898-3.437-.378-1.436-2.73-2.033-5.034-.87-2.561 1.295-3.898 3.438-3.898 3.438m-6.924-3.437c-2.304-1.164-4.656-.567-5.034.869-.405 1.538 1.346 3.25 3.898 3.437 2.746.2 5.034-.87 5.034-.87s-1.336-2.142-3.898-3.436M17 38c-2.789 0-9.824-6.157-11.743-14.242-.554-2.334-.21-4.332 1.023-5.935C8.148 15.393 12.055 14 17 14s8.852 1.393 10.72 3.823c1.233 1.603 1.577 3.6 1.023 5.935C26.824 31.843 19.79 38 17 38"/>
    </g>
</svg>
