<svg xmlns="http://www.w3.org/2000/svg" xmlns:xlink="http://www.w3.org/1999/xlink" width="210" height="53" viewBox="0 0 210 53">
    <defs>
        <path id="a" d="M.335.384h2.48v2.48H.336z"/>
    </defs>
    <g fill="none" fill-rule="evenodd">
        <path fill="#007FFF" d="M62.34 41.959c-7.8 0-14.34-6.44-14.34-14.365 0-8.132 6.54-14.53 14.34-14.53 5.12 0 9.71 2.683 12.147 7.141.732 1.238.244 2.518-.73 2.972-.935.495-2.195.248-2.682-.743-1.91-3.22-5.119-5.16-8.734-5.16-5.566 0-10.197 4.665-10.197 10.32 0 5.696 4.631 10.154 10.197 10.154 3.372 0 6.58-1.733 8.49-4.705.488-.991 1.99-1.239 2.681-.496.975.496 1.463 1.775.732 2.725-2.681 4.21-7.028 6.687-11.903 6.687zm23.847-20.722c4.957 0 8.979 4.087 8.979 9.081v9.577c0 1.156-.935 2.064-2.032 2.064s-1.99-.908-1.99-2.064v-9.577c0-2.765-2.235-4.994-4.957-4.994-2.721 0-4.915 2.229-4.915 4.994v9.577c0 1.156-.894 2.064-2.031 2.064-1.097 0-1.991-.908-1.991-2.064V13.023c0-1.115.894-2.023 1.99-2.023 1.138 0 2.032.908 2.032 2.023v9.7a8.755 8.755 0 0 1 4.915-1.486zm21.694.083c5.728 0 9.994 4.623 9.994 10.443v8.09c0 1.198-.853 2.064-2.031 2.064-.813 0-1.95-.866-1.95-2.063-1.747 1.486-3.697 2.063-6.013 2.063-5.728 0-10.278-4.334-10.278-10.154s4.55-10.443 10.278-10.443zm0 16.552c3.413 0 6.013-2.642 6.013-6.109s-2.6-6.398-6.013-6.398c-3.412 0-6.297 2.93-6.297 6.398 0 3.467 2.885 6.11 6.297 6.11zm21.775-16.594c1.138 0 2.031.908 2.031 2.023 0 1.114-.893 2.064-2.03 2.064h-2.885v14.571c0 1.115-.894 2.064-2.031 2.064-1.097 0-1.991-.95-1.991-2.064V25.365h-2.925c-1.097 0-1.99-.95-1.99-2.064 0-1.115.893-2.023 1.99-2.023h2.925v-8.255c0-1.115.894-2.023 1.99-2.023 1.138 0 2.032.908 2.032 2.023v8.255h2.884zm12.147 20.68c-5.606 0-10.197-4.664-10.197-10.36 0-5.738 4.59-10.361 10.197-10.361 5.647 0 10.197 4.623 10.197 10.36 0 5.697-4.55 10.362-10.197 10.362zm0-16.634c-3.412 0-6.175 2.806-6.175 6.274 0 3.426 2.763 6.274 6.175 6.274 3.413 0 6.175-2.848 6.175-6.274 0-3.468-2.762-6.274-6.175-6.274z"/>
        <path fill="#3CB919" d="M165.287 22.25c1.147 0 2.05.91 2.05 2.026 0 1.116-.903 2.067-2.05 2.067-3.443 0-6.23 2.81-6.23 6.282v8.308c0 1.116-.901 2.067-2.008 2.067-1.147 0-2.049-.95-2.049-2.067v-8.308c0-5.745 4.631-10.374 10.287-10.374zM171.844 43c-1.147 0-2.049-.91-2.049-2.067V24.276c0-1.116.902-2.025 2.05-2.025a2.02 2.02 0 0 1 2.007 2.025v16.657c0 1.158-.901 2.067-2.008 2.067zm0-24.883a2.039 2.039 0 0 1-1.434-.578c-.369-.372-.615-.91-.615-1.447s.246-1.075.615-1.447c.369-.372.901-.62 1.434-.62.533 0 1.066.248 1.435.62s.573.91.573 1.447-.204 1.075-.573 1.447a2.039 2.039 0 0 1-1.435.578zM178.443 43c-1.148 0-2.05-.91-2.05-2.067V14.025c0-1.116.902-2.025 2.05-2.025a2.02 2.02 0 0 1 2.008 2.025v26.908c0 1.158-.902 2.067-2.008 2.067zm6.598 0c-1.148 0-2.05-.91-2.05-2.067V14.025c0-1.116.902-2.025 2.05-2.025a2.02 2.02 0 0 1 2.008 2.025v26.908c0 1.158-.901 2.067-2.008 2.067zm14.877-20.708c5.779 0 10.082 4.63 10.082 10.457v8.102c0 1.198-.86 2.066-2.05 2.066-.819 0-1.966-.868-1.966-2.066-1.763 1.488-3.73 2.066-6.066 2.066-5.779 0-10.369-4.34-10.369-10.168 0-5.828 4.59-10.457 10.369-10.457zm0 16.575c3.443 0 6.066-2.646 6.066-6.118 0-3.472-2.623-6.406-6.066-6.406-3.443 0-6.352 2.934-6.352 6.406 0 3.472 2.91 6.118 6.352 6.118zM23 18.747c-11.447 0-19.297 4.958-17.077 13.931C8.589 43.458 18.433 52.282 23 52.282c4.567 0 14.41-8.823 17.077-19.604 2.22-8.973-5.63-13.931-17.077-13.931m19.569 11.669C39.513 44.238 28.233 53 23 53c-5.233 0-16.513-8.762-19.569-22.584C.887 18.909 9.882 10 23 10c13.118 0 22.113 8.91 19.569 20.416"/>
        <path fill="#3CB919" d="M37 13.07L45 2l-5.78 13z"/>
        <g transform="translate(43)">
            <mask id="b" fill="#fff">
                <use xlink:href="#a"/>
            </mask>
            <path fill="#3CB919" d="M2.816 1.624a1.24 1.24 0 1 1-2.48.001 1.24 1.24 0 0 1 2.48-.001" mask="url(#b)"/>
        </g>
        <path fill="#3CB919" d="M9 13.07L1 2l5.78 13z"/>
        <path fill="#3CB919" d="M0 2.5A1.5 1.5 0 1 0 3 2.5 1.5 1.5 0 0 0 0 2.5"/>
        <path fill="#007FFF" d="M22.5 33.046s-2.375 1.316-2.899 3.998c0 0 1.327-.698 2.899-.698 1.573 0 2.899.698 2.899.698-.523-2.682-2.899-3.998-2.899-3.998m2.08-2.233s3.147 1.427 6.922 1.159c3.509-.25 5.918-2.533 5.36-4.583-.52-1.914-3.754-2.71-6.921-1.159-3.523 1.726-5.36 4.583-5.36 4.583m-9.522-4.583c-3.167-1.551-6.401-.755-6.92 1.159-.558 2.05 1.85 4.333 5.36 4.583 3.774.268 6.92-1.159 6.92-1.159s-1.836-2.857-5.36-4.583M22.5 51c-3.835 0-13.508-8.21-16.147-18.99-.762-3.112-.289-5.775 1.407-7.913C10.328 20.858 15.7 19 22.5 19s12.172 1.858 14.74 5.097c1.696 2.138 2.17 4.801 1.407 7.914C36.008 42.79 26.335 51 22.5 51"/>
    </g>
</svg>
