<svg xmlns="http://www.w3.org/2000/svg" viewBox="0 0 299 299"><defs><style>.cls-1{fill:#2bb6f9;}.cls-2{fill:none;stroke:#2bb6f9;stroke-miterlimit:10;}</style></defs><title> Asset 1mic</title><g id="Layer_2" data-name="Layer 2"><g id="Layer_1-2" data-name="Layer 1"><path class="cls-1" d="M147.27,95.22A19.53,19.53,0,0,0,136.48,101a20.08,20.08,0,0,0-5.41,9.61c-.36,1.35-.38,3-.38,21.33,0,21.85-.06,20.74,1.28,24.17a21,21,0,0,0,11.46,11.46,16.78,16.78,0,0,0,7.34,1.26,16.79,16.79,0,0,0,7.34-1.26,21,21,0,0,0,11.46-11.46c1.35-3.43,1.28-2.31,1.28-24.17,0-18.28,0-20-.38-21.33a19.79,19.79,0,0,0-5.51-9.7,19.48,19.48,0,0,0-9.59-5.47A27,27,0,0,0,147.27,95.22Zm6.35,6.75a16.66,16.66,0,0,1,3.26,1.18,13.57,13.57,0,0,1,7,9.13c.46,2.19.46,37.14,0,39.33a13.45,13.45,0,0,1-26.29,0c-.46-2.19-.46-37.14,0-39.33A13.52,13.52,0,0,1,153.62,102Z"/><path class="cls-1" d="M117.22,151.86a31.71,31.71,0,0,0,5.32,15.52,38.77,38.77,0,0,0,8.69,8.71,36.72,36.72,0,0,0,15.21,5.8l1,.13v13.86H134v6.73h33.65v-6.73H154.15V182l1-.13a36.74,36.74,0,0,0,15.19-5.8,38.77,38.77,0,0,0,8.69-8.71,31.92,31.92,0,0,0,5.32-15.52l.15-2h-6.73l-.15,1.83c-1,11.95-9.84,21.39-22.08,23.51a36.89,36.89,0,0,1-9.51,0,26.73,26.73,0,0,1-14.6-7.47,24.76,24.76,0,0,1-7.49-16l-.15-1.83h-6.73Z"/><circle class="cls-2" cx="149.5" cy="149.5" r="149"/></g></g></svg>