<svg xmlns="http://www.w3.org/2000/svg" xmlns:xlink="http://www.w3.org/1999/xlink" viewBox="0 0 499.9 499.9"><defs><style>.cls-1{fill:#e9f6fc;}.cls-2{fill:#2bb6f9;stroke-miterlimit:10;stroke-width:5px;stroke:url(#linear-gradient);}.cls-3{fill:#fff;}</style><linearGradient id="linear-gradient" x1="249.95" y1="98.5" x2="249.95" y2="401.5" gradientUnits="userSpaceOnUse"><stop offset="0" stop-color="#007bff"/><stop offset="0.71" stop-color="#3ffff6"/></linearGradient></defs><title> Asset 1mic2</title><g id="Layer_2" data-name="Layer 2"><g id="Layer_1-2" data-name="Layer 1"><circle class="cls-1" cx="249.95" cy="249.95" r="249.95"/><circle class="cls-2" cx="249.95" cy="250" r="149"/><path class="cls-3" d="M246.44,184.72a19.53,19.53,0,0,0-10.79,5.78,20.08,20.08,0,0,0-5.41,9.61c-.36,1.35-.38,3-.38,21.33,0,21.85-.06,20.74,1.28,24.17a21,21,0,0,0,11.46,11.46,22,22,0,0,0,14.68,0,21,21,0,0,0,11.46-11.46c1.35-3.43,1.28-2.31,1.28-24.17,0-18.28,0-20-.38-21.33a19.79,19.79,0,0,0-5.51-9.7,19.48,19.48,0,0,0-9.59-5.47A27,27,0,0,0,246.44,184.72Zm6.35,6.75a16.66,16.66,0,0,1,3.26,1.18,13.57,13.57,0,0,1,7,9.13c.46,2.19.46,37.14,0,39.33a13.45,13.45,0,0,1-26.29,0c-.46-2.19-.46-37.14,0-39.33A13.52,13.52,0,0,1,252.79,191.47Z"/><path class="cls-3" d="M216.38,241.36a31.71,31.71,0,0,0,5.32,15.52,38.77,38.77,0,0,0,8.69,8.71,36.72,36.72,0,0,0,15.21,5.8l1,.13v13.86H233.12v6.73h33.65v-6.73H253.31V271.52l1-.13a36.74,36.74,0,0,0,15.19-5.8,38.77,38.77,0,0,0,8.69-8.71,31.92,31.92,0,0,0,5.32-15.52l.15-2h-6.73l-.15,1.83c-1,11.95-9.84,21.39-22.08,23.51a36.89,36.89,0,0,1-9.51,0,26.73,26.73,0,0,1-14.6-7.47,24.76,24.76,0,0,1-7.49-16l-.15-1.83h-6.73Z"/></g></g></svg>