<?xml version="1.0" encoding="UTF-8"?>
<svg width="35px" height="35px" viewBox="0 0 35 35" version="1.1" xmlns="http://www.w3.org/2000/svg" xmlns:xlink="http://www.w3.org/1999/xlink">
    <!-- Generator: Sketch 51.3 (57544) - http://www.bohemiancoding.com/sketch -->
    <title>movie</title>
    <desc>Created with Sketch.</desc>
    <defs></defs>
    <g id="UI" stroke="none" stroke-width="1" fill="none" fill-rule="evenodd">
        <g id="interest-Screen" transform="translate(-185.000000, -530.000000)">
            <g id="Group-4-Copy-3" transform="translate(135.000000, 530.000000)">
                <g id="movie" transform="translate(50.000000, 0.000000)">
                    <circle id="Oval-7" fill="#FFBA40" fill-rule="nonzero" cx="17.5" cy="17.5" r="17.5"></circle>
                    <path d="M24,9 L24,11 L22,11 L22,9 L14,9 L14,11 L12,11 L12,9 L10,9 L10,27 L12,27 L12,25 L14,25 L14,27 L22,27 L22,25 L24,25 L24,27 L26,27 L26,9 L24,9 L24,9 Z M14,23 L12,23 L12,21 L14,21 L14,23 L14,23 Z M14,19 L12,19 L12,17 L14,17 L14,19 L14,19 Z M14,15 L12,15 L12,13 L14,13 L14,15 L14,15 Z M24,23 L22,23 L22,21 L24,21 L24,23 L24,23 Z M24,19 L22,19 L22,17 L24,17 L24,19 L24,19 Z M24,15 L22,15 L22,13 L24,13 L24,15 L24,15 Z" id="Icon" fill="#FAFAFA"></path>
                </g>
            </g>
        </g>
    </g>
</svg>