<?xml version="1.0" encoding="UTF-8"?>
<svg width="144px" height="286px" viewBox="0 0 144 286" version="1.1" xmlns="http://www.w3.org/2000/svg" xmlns:xlink="http://www.w3.org/1999/xlink">
    <!-- Generator: Sketch 51.3 (57544) - http://www.bohemiancoding.com/sketch -->
    <title>rila_1</title>
    <desc>Created with Sketch.</desc>
    <defs>
        <polygon id="path-1" points="0.000534391541 0.312764539 33.4007756 0.312764539 33.4007756 47.7225089 0.000534391541 47.7225089"></polygon>
    </defs>
    <g id="UI" stroke="none" stroke-width="1" fill="none" fill-rule="evenodd">
        <g id="interest-Screen" transform="translate(-1281.000000, -550.000000)">
            <g id="assistent" transform="translate(878.000000, 364.000000)">
                <g id="rila_1" transform="translate(391.000000, 180.000000)">
                    <path d="M77.7041685,125.179191 C77.6264669,125.185939 77.5521437,125.206183 77.4761313,125.214618 C72.2988415,122.346747 64.5371299,125.170756 59.6368632,127.380703 C52.5237908,130.587658 46.381988,136.495471 43.3009517,143.660086 C42.1421847,146.354198 44.5120827,148.967334 47.2941369,147.646426 C51.3869829,145.703022 55.4680048,144.086893 59.8716571,142.998789 C63.4830911,142.104688 67.1874293,142.013591 70.7008918,140.760163 C75.9170323,138.899421 79.3325232,134.494709 80.8831764,129.346038 C81.4574924,127.436374 79.8375835,124.971692 77.7041685,125.179191" id="Fill-9" fill="#1347CE"></path>
                    <path d="M30.2356498,235.354376 C25.2088208,244.575342 21.9326797,254.533173 18.2589652,264.296648 C16.7659321,268.269979 10.9507816,283.177995 12.165684,286.064617 C12.9232916,287.867911 13.953911,288.638578 15.0237758,288.731532 C15.9554285,289.154046 17.134498,289.108415 17.8392096,288.374929 C23.8215798,282.136919 40.453115,242.094334 40.7807291,237.537933 C40.9274729,235.450709 43.0569646,211.832125 30.2356498,235.354376" id="Fill-11" fill="#EFC8A8"></path>
                    <path d="M101.411748,293.463735 C97.9202193,280.694553 89.5070405,266.981969 77.8815879,259.934609 C77.4855542,259.211277 39.3969225,258.839376 39.0398151,259.06627 C27.7206963,266.248402 23.45064,283.050497 23.0647609,295.06564 C22.5807197,310.161765 24.8266034,331.868522 29.247288,346.323203 C57.5535473,344.417635 107.565503,350.753606 108.993933,343.136452 C109.208874,342.660486 103.655939,301.666037 101.411748,293.463735" id="Fill-13" fill="#3D0014"></path>
                    <path d="M129.728374,540.083678 C129.129444,506.907375 131.263134,471.952376 124.37203,439.369535 C120.977523,423.334152 113.936687,412.777285 112.38151,396.353607 C110.899497,380.68278 110.606838,359.848821 108.682433,344.24921 C105.209657,316.086824 104.843833,290.269468 86.1902108,273.242153 C70.410434,258.836251 65.5356162,284.695998 66.0341578,297.594502 C66.7130591,315.147456 71.2918147,331.974689 74.6488882,349.080002 C77.9753346,366.039493 86.7823353,382.619167 88.4702303,403.604035 C89.3805366,414.956144 107.169793,451.021767 110.785496,506.066352 C111.775773,521.175932 114.305914,580.501932 109.512769,594.914617 C109.090795,596.196498 110.470717,596.864568 111.333381,596.286365 C111.956133,596.935784 112.898768,597.256254 113.923075,596.752658 C115.398282,596.032024 116.939847,595.340215 118.180246,594.197374 C132.028812,581.358215 130.031243,556.956693 129.728374,540.083678" id="Fill-15" fill="#EFC8A8"></path>
                    <path d="M79.4650294,448.062965 C76.2491493,432.659779 69.5392221,422.512737 68.07715,406.739209 C66.6812273,391.691076 65.3175313,368.237189 61.9930983,346.29695 C57.8409492,318.910299 58.3362219,294.460905 40.5386319,278.077501 C34.2612203,272.301519 29.790197,273.26305 26.7388424,277.229791 C25.8483692,287.5671 25.9874526,297.887422 26.0417291,308.35724 C26.0824365,315.908487 26.0620828,323.471627 26.3894377,331.019477 C26.5166481,333.948239 26.8423069,336.926268 27.1527004,339.911092 C27.9244438,343.561853 28.6927949,347.216011 29.4034773,350.882061 C32.5582964,367.175428 34.4545802,368.864053 42.4552694,392.817392 C43.09641,394.733659 46.8601432,414.436555 48.0576176,417.434969 C53.2986881,430.537955 60.955061,458.655098 63.7028067,501.684468 C64.6272026,516.192377 66.9560019,573.162251 62.3594643,586.99403 C61.9523909,588.225673 63.2736834,588.871224 64.0980072,588.312313 C64.6916559,588.940876 65.5906098,589.244964 66.567586,588.7625 C67.9787739,588.074479 69.4544151,587.415337 70.6383204,586.319599 C76.1372041,581.212951 75.2891344,575.747853 76.8037868,568.118459 C78.935834,557.36324 82.0448574,543.847441 81.8905087,534.371432 C81.3664016,502.511793 86.0036465,479.361995 79.4650294,448.062965" id="Fill-17" fill="#EFC8A8"></path>
                    <path d="M100.463171,141.303208 C96.9004416,139.414794 94.0221945,136.816526 91.8386968,133.746155 C88.8988463,122.419067 106.37582,108.717583 109.580908,98.0273251 C109.801653,97.2936966 69.2679009,111.565781 69.7573056,112.771513 C73.2686985,121.391648 70.8713001,128.181108 65.823245,134.522239 C59.8939191,137.49751 53.403318,139.633863 47.1266176,141.371136 C41.2588951,142.996327 35.1618712,144.47717 32.0132537,150.137317 C29.3146832,154.987416 32.6361324,160.825876 34.6656217,165.171606 C36.6540421,169.430727 37.7184117,174.341962 38.9949707,179.134322 C39.4877978,189.484937 39.5459788,199.862723 40.1123877,210.211639 C40.673663,220.439982 41.2041365,232.009915 45.6104898,241.426512 C45.3657875,241.509724 45.1707101,241.725397 45.1570204,242.075229 C45.0355249,245.356179 45.278516,248.640525 45.8295241,251.873924 C46.1392522,267.332767 49.1612405,285.383084 57.190215,298.496693 C57.1457237,299.383161 57.1919262,300.286611 57.3031545,301.310634 C57.5444345,303.521708 60.2618282,304.892167 61.8429818,303.328112 C62.428214,303.275467 62.9912004,302.976582 63.3847776,302.355035 C72.7074233,287.646803 75.2485629,268.460381 76.2992428,251.427294 C76.3283333,250.961984 76.2136826,250.571394 76.0100492,250.258923 C76.1657688,247.801607 75.8799976,245.369765 75.9005321,242.783385 C75.9381786,237.255698 76.9101431,231.651592 79.2425157,226.677523 C81.6005564,221.645714 100.353654,192.101885 106.436988,182.931529 C110.283777,177.132128 115.179535,171.998427 117.991045,165.684467 C120.485982,160.087153 121.035279,153.900559 117.445171,148.676853 C113.726722,143.266343 106.952061,141.851731 100.463171,141.303208 Z" id="Fill-19" fill="#EFC8A8"></path>
                    <path d="M100.399362,293.336177 C96.9021343,280.614256 88.4752232,266.952426 76.8307949,259.931149 C76.4341147,259.210495 38.2833128,258.839971 37.9256226,259.066025 C26.5880282,266.221574 22.311002,282.96148 21.9244931,294.932153 C21.7685334,299.798267 19.0968754,298.477635 20.319125,304.135787 C22.5517225,314.476491 25.1216676,336.257575 28.1171116,346 C31.6109487,342.624484 49.1309903,342.413727 62.5384416,342.391632 C87.0732808,342.354239 107.976971,342.921924 107.993923,342.825044 C108.209215,342.35084 102.647216,301.50812 100.399362,293.336177" id="Fill-23" fill="#49BE28"></path>
                    <path d="M101.638566,140.825711 C101.199909,140.76976 100.747649,140.766369 100.303891,140.730763 C97.690647,144.116676 94.4381193,147.180443 91.9897973,149.338814 C86.3518559,154.316801 78.5699325,158.316484 70.8458168,160.098454 C50.9872053,164.676303 51.0161091,139.98983 50.9378988,140.000003 C39.1434478,141.581904 33.7979448,143.789445 30.8344551,150.159436 C29.7123075,152.568741 28.6717707,162.889246 29.3824641,165.596959 C22.2296235,176.621097 25.2152161,184.734062 28.9574082,197.067125 C38.0093986,245.895815 20.9459547,263.20856 23.2089523,280.58743 C23.4639858,282.552514 26.073829,279.507397 27.3796008,278.410409 C28.1225985,278.529094 28.8587953,278.63591 29.5898914,278.741031 C34.6344548,283.247669 63.3053252,277.579614 67.1495307,276.426674 C68.3345865,276.072315 69.5111413,275.71626 70.6859958,275.366987 C72.9863983,275.158441 75.2289932,274.827818 77.2692615,273.741003 C77.9748543,273.61045 78.6770466,273.473114 79.3979414,273.383253 C83.0483215,272.933945 85.8094846,274.558234 88.9089922,275.814599 C90.33718,277.737295 91.767068,279.656601 93.1578509,281.618294 C93.9926607,282.796666 94.9141819,284.573549 96.0720342,285.931644 C97.2485889,288.56306 98.3197297,291.630218 99.9536446,294.081911 C100.489215,295.770628 101.031586,297.455955 101.596061,299.13789 C102.242146,302.352557 102.828723,305.584179 103.502011,308.764936 C103.87606,310.548602 106.319282,310.268844 106.83615,308.764936 C106.895658,308.591995 106.968767,308.441096 107.038476,308.283414 C107.213599,308.259677 107.390423,308.212203 107.562145,308.103691 C107.891989,307.89684 108.147022,307.644211 108.36125,307.367845 C108.840713,307.347499 109.316776,307.154212 109.714628,306.65743 C113.397313,302.05754 110.773868,294.649903 108.422458,288.715655 C108.385053,287.081193 107.970199,285.360261 107.628454,283.841094 C107.232302,278.924145 104.517045,273.810519 102.968141,269.271666 C103.007246,269.151286 103.031049,269.024124 103.022548,268.886788 C102.784517,264.603956 100.785054,229.664798 99.4095731,225.298887 C99.2242487,224.368058 99.044025,223.435533 98.8791033,222.499617 C99.0814299,222.352109 99.2480518,222.146954 99.2650541,221.836677 C99.576195,216.117757 98.1038014,210.554824 98.5543606,204.756215 C98.6172689,203.949158 98.7039803,203.140404 98.8110944,202.331651 C99.4962845,200.069855 100.150871,197.784321 101.152302,195.642905 C103.687336,190.219003 107.271407,185.263058 110.535836,180.266421 C114.160713,174.718746 118.084829,168.292803 119.094762,161.556584 C119.280086,161.453158 119.451809,161.319214 119.567424,161.08693 C124.744605,150.724037 115.228453,142.572076 101.638566,140.825711" id="Fill-25" fill="#5D87DB"></path>
                    <path d="M105.267268,181.764365 C98.6333803,186.64222 89.0499639,193.870176 81.1063084,195.846359 C64.5045789,199.979762 55.9281526,182.737229 33.1807213,193.059738 C32.9561897,193.161255 32.9238707,193.516561 33.1807213,193.557168 C35.4362431,193.915859 37.7206819,194.286393 40.0255327,194.650159 C40.0561507,194.699226 40.0850676,194.748292 40.1343965,194.778747 C46.5471548,198.756491 52.8391422,201.055834 58.2755283,206.60708 C63.0519275,211.481551 66.3722734,215.904275 72.6795699,218.915924 C79.6094312,222.221969 87.4629338,223.470619 94.8486623,225.367281 C96.3676525,225.758118 97.8356128,226.335069 99.2780581,227 C99.0586295,226.367215 98.8460049,225.734431 98.6452873,225.10503 C98.4598786,224.174465 98.279573,223.245591 98.1145763,222.30995 C98.3169949,222.162751 98.4836926,221.959719 98.4990016,221.648402 C98.811985,215.941498 97.3389217,210.390252 97.7896859,204.605518 C97.8526228,203.798464 97.9393736,202.993102 98.0465364,202.186048 C98.7320381,199.929004 99.3869219,197.64658 100.388809,195.509664 C102.924995,190.097156 106.510697,185.151624 109.776611,180.167176 C110.855043,178.520921 111.953887,176.788378 113,175 C110.463814,177.355177 107.970152,179.776339 105.267268,181.764365" id="Fill-27" fill="#1347CE"></path>
                    <path d="M76.385836,266.831786 C70.4952467,268.216356 65.2851829,271.13755 59.2413069,272.092797 C58.9162043,272.146462 58.9229421,272.724261 59.2413069,272.781504 C63.1560137,273.484523 66.9949193,272.36828 70.7428637,271.176905 C73.7715396,270.212714 76.690725,269.282512 79.8608963,268.98914 C82.1854641,268.774478 84.1529243,269.726147 86.4758075,269.309344 C87.0384203,269.20738 87.1512798,268.39703 86.7992257,268.012427 C84.0788076,265.051879 79.8996391,266.003548 76.385836,266.831786" id="Fill-29" fill="#1347CE"></path>
                    <path d="M84.8217162,30.7418721 C89.1853997,31.51381 93.5555719,31.1109126 97.941966,31.6170736 C107.426894,32.7106522 116.224015,35.8593461 124.636678,40.558687 C135.884924,46.8391463 146.690313,54.8124518 154.956978,65 C155.390102,64.3330186 155.808627,63.6491088 156.178485,62.9161064 C164.12558,47.1760227 154.965089,28.64105 132.72977,17.0958392 C110.492828,5.54724263 97.1568274,4.38595016 84.5767659,26.7145911 C83.8954473,27.9232833 83.4055468,29.1556753 83,30.3965315 C83.5969649,30.5150307 84.2020407,30.63353 84.8217162,30.7418721" id="Fill-351" fill="#1D63ED" transform="translate(121.000000, 37.000000) rotate(14.000000) translate(-121.000000, -37.000000) "></path>
                    <path d="M120.252398,25.7235706 C92.280662,9.75403931 68.1773231,17.4874644 57.3613692,34.5923028 C51.2484266,44.2595116 52.3164089,58.0319499 55.9530587,66.6681494 C57.1847226,61.4259028 58.9673941,56.373444 61.4128952,52.0459404 C61.621954,49.8984317 62.9152011,48.1424672 63.8357078,46.2343305 C66.1580425,41.4178241 69.7703832,38.2615334 74.2400267,36.5209571 C88.0508688,26.4622042 118.268771,31.5232119 117.043589,46.3950517 C117.147308,46.6190355 117.25913,46.8378898 117.353126,47.067003 C117.661042,47.2773084 117.94951,47.4978726 118.254185,47.7115976 C119.756491,46.9917718 121.360895,47.870609 122.35595,49.4487543 C122.722208,50.0317961 123.101431,50.8012061 123.385038,51.6270394 C123.675127,51.8732506 123.950631,52.1245912 124.235858,52.3725122 C126.642465,51.2406246 131.092661,55.6057439 132.188194,57.3121242 C133.77153,59.7827851 135.450482,63.2964239 136.458502,66.8357098 C136.495776,66.8630665 136.536291,66.8887135 136.573565,66.9143605 C137.591309,66.5809496 138.795422,66.6852474 139.618692,67.2734185 C142.564962,69.379892 146.729931,74.0527752 146.485219,97 C148.852931,94.9106245 151.737617,91.8500826 153.267473,89.0169442 C164.86132,67.5333081 148.222513,41.6931019 120.252398,25.7235706" id="Fill-353" fill="#49BE28" transform="translate(105.000000, 57.000000) rotate(11.000000) translate(-105.000000, -57.000000) "></path>
                    <g id="Group-9" transform="translate(85.500000, 75.000000) rotate(7.000000) translate(-85.500000, -75.000000) translate(29.000000, 24.000000)">
                        <path d="M24.4223468,44.8276368 C24.4223468,44.8276368 11.8251003,54.1633629 13.6289584,65.705715 C15.4321401,77.2480672 5.96306886,91.2801727 0.778076012,90.9406917 C-4.4075932,90.6012108 17.3489506,104.632637 35.7230069,95.0144631 C35.7230069,95.0144631 40.7957236,92.9775774 47.1088887,87.0930147 C47.1088887,87.0930147 40.4859497,88.7904194 35.1595972,84.0376862 C35.1595972,84.0376862 39.3023158,84.4620373 41.162312,83.8679457 C41.162312,83.8679457 24.3378015,81.4352252 26.0287071,51.221421 C26.0287071,51.221421 26.4514335,44.5166723 26.7334765,44.2050288 C27.0148432,43.8940642 24.816666,43.0453619 24.816666,43.0453619 L24.4223468,44.8276368" id="Fill-14" fill="#073CA1" transform="translate(23.554444, 70.717380) scale(-1, 1) translate(-23.554444, -70.717380) "></path>
                        <path d="M45.0606761,76.8667176 L45.0606761,83.0425689 C45.0606761,83.0425689 64.967175,104.314946 76.5733131,101.141244 C76.5733131,101.141244 77.420427,101.312796 75.895622,96.0804772 C74.370817,90.8481588 45.0606761,76.8667176 45.0606761,76.8667176" id="Fill-20" fill="#E2B593" transform="translate(60.934323, 89.165392) scale(-1, 1) translate(-60.934323, -89.165392) "></path>
                        <path d="M93.4699193,35.8711349 C93.4699193,35.8711349 50.5534469,39.0100589 85.199781,85.8659144 L87.6580902,93.2649507 L97.9406087,89.9013855 L102.410628,57.169679 L93.4699193,35.8711349 Z" id="Fill-22" fill="#0F49BD" transform="translate(87.049033, 64.568043) scale(-1, 1) translate(-87.049033, -64.568043) "></path>
                        <path d="M54.886911,17.0656131 C54.886911,17.0656131 26.7434335,23.6992449 22.5303381,55.3365657 C22.5303381,55.3365657 31.1250528,78.2991373 45.9551487,88.8449109 C45.9551487,88.8449109 58.0888636,100.184679 65.7283853,98.1435617 C65.7283853,98.1435617 75.3908669,95.1948274 86.6253386,71.4954124 C86.6253386,71.4954124 87.9735292,67.6968928 86.6253386,64.5215943 C86.6253386,64.5215943 85.2771481,62.0266684 86.8504865,51.9347033 C86.8504865,51.9347033 87.5245817,46.6618165 88.198677,44.3941349 C88.8727723,42.1257731 89.097246,27.8379507 89.097246,27.8379507 L74.9412453,13.3235644 L54.886911,17.0656131 Z" id="Fill-24" fill="#F9E0C5" transform="translate(55.813792, 55.856481) scale(-1, 1) translate(-55.813792, -55.856481) "></path>
                        <path d="M84.6686946,56.7836387 L84.6296043,57.2708069 C84.5210951,58.6227983 84.248811,59.9090818 83.8201659,61.0951439 C82.8651499,63.7367373 81.6641347,66.3152776 78.4594057,66.3152776 C78.2430612,66.3152776 78.0098675,66.3059856 77.7658902,66.2867378 L76.316854,66.1739059 C73.7625063,65.9747908 71.8295594,62.9953655 72.0971256,59.6674888 L72.4374806,55.4283287 C72.498138,54.6650543 72.9867665,54.0949214 73.3817131,54.0949214 L73.4154116,54.0962488 L83.6220186,54.890718 C84.1854578,54.9345233 84.7536148,55.7223553 84.6686946,56.7836387 M52.1395156,65.589835 C51.7243498,65.589835 51.2923348,65.5712509 50.8171857,65.5347465 L48.6759819,65.3681536 C46.6527229,65.2101889 44.8067181,64.2796578 43.4789965,62.7464717 C42.150601,61.2139493 41.5069593,59.2725772 41.6666903,57.2807627 L42.0683766,52.2723547 C42.1479051,51.2907174 42.9923899,50.5221331 43.991888,50.5221331 C44.0424358,50.5221331 44.0929835,50.5241243 44.1442053,50.5281066 L59.2330535,51.7022219 C60.5587532,51.8057617 61.5515115,52.9520008 61.4463721,54.2568683 L61.4005422,54.8329746 C61.2731618,56.4239041 60.9024781,57.9345239 60.2992746,59.3236834 C58.0408,64.5239056 55.4042279,65.589835 52.1395156,65.589835 M83.727832,53.5672664 L73.5218989,52.7727973 C73.475395,52.7694787 73.4282171,52.7674875 73.3817131,52.7674875 C72.223832,52.7674875 71.2088327,53.8838594 71.0935838,55.3241252 L71.0019238,56.466382 C68.610677,54.0431515 65.1120969,54.3239037 62.723546,55.1123995 C62.7289377,55.0539924 62.7397212,54.996249 62.744439,54.9371782 L62.790943,54.3617356 C62.9533698,52.3314255 61.4005422,50.5393898 59.3388669,50.379434 L44.2506926,49.204655 C44.1637504,49.1980179 44.0774822,49.1946993 43.991888,49.1946993 C42.6830376,49.1946993 41.5292003,49.973903 41.0102431,51.1075315 L19.4816082,50.731204 L19.4580192,52.0586378 L40.7042606,52.4296556 L40.3227934,57.1758954 C39.9339125,62.0256751 43.6447932,66.3079767 48.5694946,66.6909414 L50.7113724,66.8581981 C51.2013488,66.8960299 51.6771719,66.9172689 52.1395156,66.9172689 C56.1455953,66.9172689 59.1488072,65.3495695 61.5387061,59.8453649 C61.9882443,58.8093028 62.3023145,57.7234619 62.5098974,56.616382 C64.040484,56.0177094 68.3707435,54.7294348 70.6912235,58.1774443 L70.8738694,58.0586389 L70.7532287,59.5626215 C70.4236572,63.6677108 72.8796052,67.2378442 76.2110406,67.4973575 L77.6600769,67.6101894 C77.9323609,67.6314283 78.1985792,67.6427115 78.4594057,67.6427115 C81.2563827,67.6427115 83.3618661,66.3192599 85.089926,61.540498 C85.568445,60.215719 85.8589262,58.8039931 85.9735012,57.3756742 L86.0125915,56.888506 C86.1500814,55.1701428 85.1222766,53.6754523 83.727832,53.5672664" id="Fill-26" fill="#093BA2" transform="translate(52.741473, 58.418705) scale(-1, 1) translate(-52.741473, -58.418705) "></path>
                        <path d="M106.56868,44.7063885 L108.730229,44.0871886 C108.730229,44.0871886 111.201051,43.749566 112.324275,42.8494641 C112.324275,42.8494641 116.367071,21.8040961 96.0405647,8.07433494 C75.7140579,-5.65542626 56.960199,3.34761835 43.8211105,12.4634289 C30.682022,21.5792395 18.4411081,48.3641919 18.3292574,55.4542667 C18.3292574,55.4542667 13.2757619,78.1870725 26.8636007,91.2422638 C40.4521134,104.29678 54.9388007,101.14541 68.9760638,95.8562144 C68.9760638,95.8562144 41.575337,90.003864 43.3716863,52.4156632 C43.3716863,52.4156632 49.3974744,52.5318054 52.1310786,49.0394371 C54.8242548,45.5997379 57.1286488,46.0568789 60.329196,29.5133709 C60.329196,29.5133709 62.0136945,25.2930882 63.6981931,24.7866543 C63.6981931,24.7866543 70.2677373,31.5391066 63.8666429,42.1742189 C63.8666429,42.1742189 76.6688317,40.3172945 87.2811724,43.5247093 C87.2811724,43.5247093 92.1662181,44.3687659 97.5566134,44.5375772 C97.5566134,44.5375772 101.009835,40.3172945 100.083361,28.4160974 C100.083361,28.4160974 103.368133,33.9868705 100.672936,44.7063885 L106.56868,44.7063885" id="Fill-28" fill="#073CA1" transform="translate(65.030749, 50.732034) scale(-1, 1) translate(-65.030749, -50.732034) "></path>
                        <path d="M22.9174917,45.095141 C22.9174917,45.095141 24.664693,44.737254 25.1496788,44.4652323 L25.6026569,43.0453619 L21.852193,43.1312273 L20.4821255,43.8717306 L22.9174917,45.095141 Z" id="Fill-30" fill="#073CA1" transform="translate(23.042391, 44.070251) scale(-1, 1) translate(-23.042391, -44.070251) "></path>
                        <path d="M47.5245225,45.9376142 C47.5245225,45.9376142 46.2673413,47.8240297 48.1258972,46.880822 C49.9837972,45.9376142 56.924198,45.5859863 60.4222703,47.1449201 C60.4222703,47.1449201 59.4385604,43.2340034 56.0500079,43.0453619 C56.0500079,43.0453619 49.1640389,44.6171233 47.5245225,45.9376142" id="Fill-32" fill="#073CA1" transform="translate(53.765579, 45.095141) scale(-1, 1) translate(-53.765579, -45.095141) "></path>
                        <path d="M31.5235942,48.5912443 C31.5235942,48.5912443 32.2002575,49.5341427 31.1998598,49.0624202 C30.1994621,48.5912443 26.4619193,48.4152366 24.5785506,49.1946993 C24.5785506,49.1946993 25.1085927,47.2394833 26.9329236,47.1449201 C26.9329236,47.1449201 30.6406232,47.9309421 31.5235942,48.5912443" id="Fill-34" fill="#073CA1" transform="translate(28.162923, 48.169810) scale(-1, 1) translate(-28.162923, -48.169810) "></path>
                        <path d="M57.3499514,56.3689262 C57.3499514,58.0668462 56.4332875,59.443595 55.302071,59.443595 C54.1708545,59.443595 53.2535263,58.0668462 53.2535263,56.3689262 C53.2535263,54.6703036 54.1708545,53.2942575 55.302071,53.2942575 C56.4332875,53.2942575 57.3499514,54.6703036 57.3499514,56.3689262" id="Fill-36" fill="#0A3AA0" transform="translate(55.301739, 56.368926) scale(-1, 1) translate(-55.301739, -56.368926) "></path>
                        <path d="M67.0789611,74.8169385 C63.9685093,74.8169385 61.4463765,73.2111131 61.4463765,71.229825 C61.4463765,69.2485369 63.9685093,67.6427115 67.0789611,67.6427115 C70.1900829,67.6427115 72.7115456,69.2485369 72.7115456,71.229825 C72.7115456,73.2111131 70.1900829,74.8169385 67.0789611,74.8169385" id="Fill-38" fill="#FFB0A9" transform="translate(67.078961, 71.229825) scale(-1, 1) translate(-67.078961, -71.229825) "></path>
                        <path d="M31.7305749,59.0937069 C31.5872867,60.5054165 30.5617211,61.5783932 29.4394177,61.4880644 C28.3178417,61.399026 27.5243012,60.1815233 27.6675894,58.7691685 C27.8101503,57.3568137 28.8364433,56.2844822 29.9580193,56.3741658 C31.0803227,56.4638493 31.8738632,57.6813521 31.7305749,59.0937069" id="Fill-40" fill="#0A3AA0" transform="translate(29.699082, 58.931150) scale(-1, 1) translate(-29.699082, -58.931150) "></path>
                        <path d="M35.8446995,72.7671593 C35.8446995,72.7671593 42.1119759,75.4303402 45.2749391,74.9276003 C45.2749391,74.9276003 49.9324439,74.4248604 49.9324439,75.7091932 C49.9324439,75.7091932 51.1399451,74.8156569 53.3244873,75.7091932 C53.3244873,75.7091932 55.5097196,76.5470931 57.3499514,76.3795131 C57.3499514,76.3795131 55.5097196,83.5854517 51.081985,87.4960978 C51.081985,87.4960978 44.5849384,93.3050898 38.259702,83.2502918 C38.259702,83.2502918 35.7874294,79.321547 35.8446995,72.7671593" id="Fill-42" fill="#FFB0A9" transform="translate(46.596836, 80.966276) scale(-1, 1) translate(-46.596836, -80.966276) "></path>
                        <path d="M36.8678259,75.841828 C36.8678259,81.1335138 41.0073873,86.0907237 46.3209543,86.0907237 C51.6351925,86.0907237 56.1862264,80.8540871 56.3258452,77.4278007 L55.4109397,77.3518469 C55.4109397,77.3518469 41.7974414,79.5942283 41.3564341,76.719827 L36.8678259,75.841828 Z" id="Fill-44" fill="#1347CE" transform="translate(46.596836, 80.966276) scale(-1, 1) translate(-46.596836, -80.966276) "></path>
                        <path d="M36.9000083,72.7671593 C36.9000083,72.7671593 42.8596937,77.6436346 56.3255433,76.5986756 C56.3255433,76.5986756 56.4493166,80.0484336 51.6840438,79.9077124 C51.6840438,79.9077124 42.8019328,80.488013 37.3008963,76.8306565 C37.3008963,76.8306565 36.7281009,73.7542973 36.9000083,72.7671593" id="Fill-46" fill="#FFFFFF" transform="translate(46.596836, 76.354273) scale(-1, 1) translate(-46.596836, -76.354273) "></path>
                        <g id="Group-52" transform="translate(75.169565, 24.000000) scale(-1, 1) translate(-75.169565, -24.000000) translate(58.169565, 0.000000)">
                            <mask id="mask-2" fill="white">
                                <use xlink:href="#path-1"></use>
                            </mask>
                            <g id="Clip-51"></g>
                        </g>
                        <path d="M41.8381241,59.443595 C41.8381241,59.443595 40.3521658,65.2714782 40.4651043,68.5740991 C40.4651043,68.5740991 35.6023556,69.3791501 35.8530933,70.2547502 C36.103831,71.1310096 42.6308246,70.6107924 43.6898895,69.9448616 C44.7489544,69.2789308 43.1656843,61.0049059 41.8381241,59.443595" id="Fill-79" fill="#FA8375" transform="translate(39.940145, 65.080488) scale(-1, 1) translate(-39.940145, -65.080488) "></path>
                    </g>
                    <path d="M111.892373,301.621725 C109.071507,293.270515 106.182941,284.909155 103.259656,276.588393 C99.777406,266.674185 91.1117066,255.650317 79.4984196,255.000759 C78.9273028,254.970311 78.8005809,255.865144 79.3630181,255.975095 C93.6548255,258.764471 98.9875636,275.969283 101.763295,287.700222 C103.322149,294.293906 103.914097,302.470886 105.729867,310 C106.382571,309.888357 107.005766,309.480692 107.238379,308.815911 C107.299136,308.641681 107.37378,308.492824 107.444953,308.335509 C107.625488,308.311827 107.806024,308.264464 107.981351,308.154513 C108.316383,307.948143 108.578507,307.697793 108.797233,307.422069 C109.286761,307.401771 109.771082,307.208933 110.179023,306.713307 C111.309105,305.332998 111.850711,303.697264 112,301.927896 C111.963546,301.824711 111.927091,301.723218 111.892373,301.621725" id="Fill-31" fill="#1347CE"></path>
                    <path d="M81.8887984,238.175744 C81.4106668,237.652272 80.7027617,238.414157 81.133587,238.947996 C84.4450285,243.066672 88.281908,246.677424 91.3973662,250.96368 C94.7865252,255.630016 96.5165844,261.405491 99.2417656,266.469182 C101.512468,270.691516 104.094041,275.440778 107,280 C105.974467,276.772782 104.523177,273.580118 103.539882,270.627594 C103.57874,270.504932 103.604083,270.375359 103.595635,270.235421 C103.533123,269.093456 103.350656,265.804044 103.092161,261.503966 C100.664334,257.936405 98.4037682,254.270369 95.5468051,251.034513 C91.4260879,246.368178 86.1210234,242.795434 81.8887984,238.175744" id="Fill-33" fill="#1347CE"></path>
                    <path d="M72.144986,225.560485 C79.2586427,229.781304 87.2612945,231.441138 93.6386462,237.072902 C96.52788,239.625305 97.8834278,245.480211 101,248 C100.721765,244.070982 100.423171,240.157413 100.119488,236.719308 C98.6858985,235.570984 97.2675782,234.573711 96.130886,233.806445 C89.5669133,229.371066 79.9644098,226.851277 72.3757175,225.009496 C72.0482823,224.928822 71.8480888,225.383688 72.144986,225.560485" id="Fill-35" fill="#1347CE"></path>
                    <path d="M68.8952274,259.030219 C69.0827727,258.929738 69.001672,258.62665 68.7854037,258.634887 C65.759336,258.750192 63.0627396,259.580389 60.0248447,259.786292 C56.8652989,260.00043 52.1023258,257.829397 48.8954712,257.17051 C42.7639248,255.913683 36.4059724,253.477449 30.2068421,253.00305 C29.3012182,252.933867 28.6912738,254.057269 29.1643609,254.773809 C32.6973076,260.125618 39.8730248,260.652728 45.9065747,261.232548 C54.3325934,262.039685 61.2210792,263.141673 68.8952274,259.030219" id="Fill-37" fill="#1347CE"></path>
                    <path d="M143.01057,225.745939 C142.333831,224.330685 141.002292,223.667284 139.620125,223.14677 C140.08591,222.15337 140.428499,221.131053 140.580385,220.222704 C140.872345,218.465543 140.006592,216.944825 138.668303,216.342661 C139.142526,215.177458 139.464863,213.964625 139.576247,212.9287 C139.712944,211.647827 139.431111,210.491128 138.803313,209.375254 C138.069195,208.068865 137.144374,207.704846 135.986662,207.560258 C136.373128,203.409752 134.810385,198.793165 132.840923,194.865493 C132.483145,193.344775 132.164184,191.977149 131.909352,190.828955 C129.737374,181.087173 125.864268,171.864204 123.624785,162.158143 C122.320249,156.510733 120.963396,150.591159 116.037209,147.139775 C115.643992,146.864208 115.222085,147.029208 114.977379,147.3473 C111.53968,147.046218 109.592157,150.667705 108.588018,154.321511 C103.386748,160.336343 101.005505,172.481677 102.385985,179.653207 C103.69896,186.479429 107.803271,191.762819 110.869692,197.859301 C113.087235,202.259858 114.788364,207.303403 117.508821,211.491332 C118.102866,213.374369 118.686785,215.21488 119.243703,216.966938 C119.262267,218.761522 119.361837,220.578219 119.469845,222.316669 C119.562664,223.832284 120.33391,225.240734 121.194601,226.540319 C121.066341,226.536917 120.934706,226.535216 120.811509,226.531814 C119.712863,226.504597 118.595653,227.530317 118.681722,228.67851 C118.740789,229.491601 118.933179,230.229847 119.221763,230.922165 C118.24969,231.02933 117.313056,231.927472 117.405876,232.931078 C117.505446,234.021436 117.454817,235.195145 117.468318,236.356947 C115.667619,238.046067 113.851731,239.941011 112.071283,241.955027 C115.120827,244.368784 117.660707,247.604138 120.276531,250.388719 C121.383615,251.56583 122.53289,252.770157 123.682165,254 C127.724034,250.53841 131.232613,247.476561 132.90674,245.831668 C134.356413,244.404506 138.793187,237.797717 139.908709,235.426485 C141.30269,234.54025 142.521158,233.397159 143.395349,231.816905 C144.495683,229.825002 143.92864,227.662997 143.01057,225.745939" id="Fill-39" fill="#B09D76"></path>
                    <path d="M139.999965,234.470999 C140.017033,224.00076 133.788735,200.189028 131.646637,190.723389 C129.44992,181.004904 125.532697,171.803991 123.267706,162.121141 C121.950017,156.487237 120.576003,150.581819 115.593705,147.138688 C115.197716,146.865478 114.771003,147.028386 114.521803,147.345717 C109.170825,146.882447 107.378632,155.69306 107.160155,159.619823 C106.914368,164.084523 105.992669,171.181207 106.149699,172.896833 C106.953626,181.705748 120.801307,222.151074 123.409375,231.31126 C114.931447,235.913414 104.478692,250.44787 98.6532105,257.464796 C91.6431741,265.908865 81.8236613,273.518031 75.9367327,282.885246 C75.1054964,283.211062 74.3459478,283.796513 73.7195335,284.628023 C73.1067741,285.44426 71.5501261,292.172704 72.1253348,294.032571 C72.2311596,294.37366 84.4880554,301.270102 85.8296402,300.991801 C86.2956104,300.893377 86.7103752,300.486107 86.8913014,300.019443 C88.0212366,299.199812 87.8727406,295.799105 87.9000502,295.028686 C87.9870996,292.444217 87.8420173,289.746052 87.1148988,287.473823 C88.9873142,281.65495 99.0662684,274.402146 103.31462,270.611139 C108.581962,265.910562 127.894979,250.210295 132.655386,245.594566 C134.338341,243.962092 139.998258,235.526507 139.999965,234.470999" id="Fill-41" fill="#EFC8A8"></path>
                    <path d="M143.01057,225.745939 C142.333831,224.330685 141.002292,223.667284 139.620125,223.14677 C140.08591,222.15337 140.428499,221.131053 140.580385,220.222704 C140.872345,218.465543 140.006592,216.944825 138.668303,216.342661 C139.142526,215.177458 139.464863,213.964625 139.576247,212.9287 C139.712944,211.647827 139.431111,210.491128 138.803313,209.375254 C138.069195,208.068865 137.144374,207.704846 135.986662,207.560258 C136.373128,203.409752 134.810385,198.793165 132.840923,194.865493 C132.483145,193.344775 132.164184,191.977149 131.909352,190.828955 C129.737374,181.087173 125.864268,171.864204 123.624785,162.158143 C122.320249,156.510733 120.963396,150.591159 116.037209,147.139775 C115.643992,146.864208 115.222085,147.029208 114.977379,147.3473 C111.53968,147.046218 109.592157,150.667705 108.588018,154.321511 C103.386748,160.336343 101.005505,172.481677 102.385985,179.653207 C103.69896,186.479429 107.803271,191.762819 110.869692,197.859301 C113.087235,202.259858 114.788364,207.303403 117.508821,211.491332 C118.102866,213.374369 118.686785,215.21488 119.243703,216.966938 C119.262267,218.761522 119.361837,220.578219 119.469845,222.316669 C119.562664,223.832284 120.33391,225.240734 121.194601,226.540319 C121.066341,226.536917 120.934706,226.535216 120.811509,226.531814 C119.712863,226.504597 118.595653,227.530317 118.681722,228.67851 C118.740789,229.491601 118.933179,230.229847 119.221763,230.922165 C118.24969,231.02933 117.313056,231.927472 117.405876,232.931078 C117.505446,234.021436 117.454817,235.195145 117.468318,236.356947 C115.667619,238.046067 113.851731,239.941011 112.071283,241.955027 C115.120827,244.368784 117.660707,247.604138 120.276531,250.388719 C121.383615,251.56583 122.53289,252.770157 123.682165,254 C127.724034,250.53841 131.232613,247.476561 132.90674,245.831668 C134.356413,244.404506 138.793187,237.797717 139.908709,235.426485 C141.30269,234.54025 142.521158,233.397159 143.395349,231.816905 C144.495683,229.825002 143.92864,227.662997 143.01057,225.745939" id="Fill-43" fill="#5D87DB"></path>
                    <path d="M135.996222,219.94415 C137.666012,219.268425 139.356301,218.590844 141,217.827869 C140.616097,217.243108 140.092425,216.775298 139.46439,216.494984 C139.81102,215.655897 140.049562,214.814954 140.228468,214 C138.607132,215.581641 136.801299,216.968362 135.209781,218.59827 C134.689835,219.132909 135.206054,220.263449 135.996222,219.94415" id="Fill-45" fill="#1347CE"></path>
                    <path d="M119.377919,216.360989 C119.875384,216.571972 120.366422,216.779983 120.826609,216.990966 C120.950011,217.047426 121.064415,216.824557 120.957724,216.729466 C120.340713,216.173778 119.683854,215.582432 119,215 C119.127258,215.457625 119.253232,215.91525 119.377919,216.360989" id="Fill-47" fill="#1347CE"></path>
                    <path d="M143,233.317052 C142.13205,233.491042 141.215496,233.569829 140.165277,233.415537 C137.766264,233.060992 134.77531,232.729427 132.407543,233.336749 C132.081194,233.420461 131.87983,233.819324 132.079458,234.100005 C133.679957,236.343815 136.321996,237.189143 138.934524,238 C139.677489,236.880557 140.293733,235.879296 140.62529,235.219448 C141.501919,234.697479 142.298697,234.065536 143,233.317052" id="Fill-49" fill="#1347CE"></path>
                    <path d="M132.891686,210.92136 C134.412931,210.003337 136.269851,208.873092 138,207.561173 C137.494704,207.287856 136.932271,207.156021 136.300204,207.08528 C136.437688,205.760498 136.326987,204.384268 136.055591,203 C135.968101,203.221869 135.877041,203.445345 135.775267,203.65596 C134.707539,205.919665 133.636239,208.164077 132.089996,210.199482 C131.759679,210.633573 132.409601,211.212361 132.891686,210.92136" id="Fill-51" fill="#1347CE"></path>
                    <path d="M128.699466,240.980633 C128.958639,241.088698 129.080797,240.717443 128.942131,240.536174 C126.416434,237.23497 122.403383,236.136893 118.756806,234.75471 C118.213699,234.550782 117.650782,234.289335 117.069707,234 C117.069707,234.538581 117.063104,235.084133 117.069707,235.627943 C116.713138,235.978282 116.356569,236.370452 116,236.736478 C117.726718,236.964808 119.460039,237.259372 121.094313,237.642827 C123.85277,238.291216 126.119294,239.905215 128.699466,240.980633" id="Fill-53" fill="#1347CE"></path>
                    <path d="M127.075363,222.878772 C129.816623,226.510186 133.879944,226.235336 137.739111,225.653632 C139.159956,225.439022 140.577508,225.216883 142,225.034277 C141.310157,224.256789 140.411222,223.761682 139.476065,223.362584 C139.803699,222.564388 140.039135,221.768075 140.216946,221 C139.238983,221.498872 138.275838,222.042926 137.360438,222.466496 C134.031413,224.008294 130.695802,222.978546 127.338788,222.362957 C127.070424,222.314011 126.890966,222.634042 127.075363,222.878772" id="Fill-55" fill="#1347CE"></path>
                    <path d="M123.601836,233.991811 C123.899376,234.05006 124.07937,233.787055 123.965496,233.536405 C123.048999,231.483549 120.804591,230.08909 118.547327,229 C118.615284,229.822554 118.819154,230.574503 119.125877,231.277028 C118.72732,231.319392 118.332437,231.480019 118,231.718313 C119.842178,232.673252 121.680682,233.617601 123.601836,233.991811" id="Fill-57" fill="#1347CE"></path>
                    <path d="M121.460152,226.67219 C121.323991,226.668768 121.184246,226.667058 121.051668,226.663636 C120.969254,226.661925 120.885049,226.675611 120.800844,226.684165 C121.723517,227.115274 122.642607,227.56349 123.610069,227.95183 C123.959431,228.092111 124.330292,227.900508 124.593657,227.703771 C124.690403,227.63192 124.783566,227.560069 124.880312,227.488217 C124.984225,227.411233 125.025432,227.231605 124.984225,227.116985 C124.455704,225.688509 122.004798,224.709961 120,224 C120.342195,224.934069 120.870716,225.82708 121.460152,226.67219" id="Fill-59" fill="#1347CE"></path>
                    <path d="M50.6278694,272.779016 C44.9664639,270.994464 39.7738589,268.815519 34.5062458,266.162323 C31.4871704,264.643418 28.7101667,263.020209 25.674044,262 C25.0415895,264.265321 24.4602769,266.410042 24,268.463498 C28.4033154,268.839965 33.7834406,271.183513 36.6780707,271.967412 C41.2501543,273.206004 45.8801987,274.588013 50.6278694,273.737295 C51.1665638,273.639512 51.0796226,272.920802 50.6278694,272.779016" id="Fill-61" fill="#1347CE"></path>
                    <path d="M29.0273872,200.393485 C29.2071157,201.429759 29.3748622,202.451134 29.5289152,203.457611 C29.6127885,203.995613 29.6932384,204.528648 29.7702649,205.056717 C29.8558499,205.657624 29.9397231,206.255219 30.0184613,206.842883 C30.0681006,207.225278 30.1314335,207.624227 30.1776494,208 C33.970776,204.015477 38.547861,201.782357 44.6945746,203.840006 C44.920519,203.914499 45.1070943,203.60163 44.9290775,203.449334 C39.5526287,198.832453 34.2018554,197.902124 29,200.224636 C29.0102702,200.282574 29.017117,200.335547 29.0273872,200.393485" id="Fill-63" fill="#1347CE"></path>
                    <path d="M25.267023,278.041064 C29.6418633,279.285749 33.8773986,280.288076 38.4479292,279.924538 C39.0781185,279.874335 39.2223987,278.975876 38.598843,278.76814 C36.2704594,277.997785 33.8856905,277.490563 31.5622822,276.69251 C28.8110085,275.743848 26.3234192,274.109657 23.5970214,273.067514 C23.5373193,273.043278 23.472642,273.022505 23.4112814,273 C23.1791064,274.566677 23.038143,276.097 23,277.60828 C23.7678359,277.706955 24.5306966,277.831596 25.267023,278.041064" id="Fill-65" fill="#1347CE"></path>
                    <path d="M108.226986,151.134937 C100.071104,159.063421 96.0533453,176.938143 101.488339,187.272476 C102.276634,188.771624 104.653384,187.737847 104.175322,186.125362 C100.37286,173.251234 102.947956,163.402879 108.94408,151.696474 C109.181416,151.231102 108.610114,150.762297 108.226986,151.134937" id="Fill-67" fill="#4A77D1"></path>
                    <path d="M35.9946767,280.242832 C34.452525,281.408029 27.1260348,282.006978 25.4518437,281.62489 C24.3244309,281.366722 23.0480507,281.227312 21.7716705,281.199774 C20.5731596,280.569845 19.2815441,280.143007 17.9509938,280.029414 C15.9788679,279.860744 13.8577745,280.418386 12.5170674,281.943297 C11.8907269,282.65584 11.863642,283.850295 12.2733025,284.760767 C12.0210735,290.796727 19.8317079,297.861916 22.6722464,301.798113 C23.7421036,303.283438 29.2234288,296.170057 30.4710312,293.626245 C31.0364304,292.473096 30.4778025,291.407724 29.5687625,290.841476 C29.5433703,290.807054 29.528135,290.77091 29.50105,290.738209 C28.2145129,289.16855 27.5729371,287.239177 26.5149296,285.516337 C29.8650046,286.175526 37.496201,284.301228 37.9769596,281.791838 C38.1767114,280.748841 37.0408345,279.45456 35.9946767,280.242832" id="Fill-69" fill="#EFC8A8"></path>
                    <path d="M105.354841,194.677488 C104.88798,182.608415 97.3909515,170.469666 100.808915,158.461771 C103.632228,148.53393 115.295219,131.144064 89.9995628,133.161241 C88.9976871,132.955614 87.8169051,133.137449 87.0143823,133.856292 C86.4061006,134.260747 85.797819,134.665202 85.1878335,135.069657 C83.8076987,135.798695 83.3800273,137.51508 84.4943583,138.43615 C91.4700027,144.20898 87.333006,151.201973 84.8760253,157.583186 C81.9845576,165.101291 82.9642829,172.789335 84.3069326,180.400906 C85.903459,189.438266 88.2718385,198.356669 88.4098519,207.468803 C88.527419,215.297896 87.6141446,223.538242 90.5788786,231.207593 C91.7937381,234.348067 99.4321879,233.015744 98.2837795,229.878669 C94.9101166,220.674768 99.0437056,221.002751 100.711794,230.837125 C101.064496,232.912081 106.172698,233.00045 105.995496,230.837125 C104.99362,218.764653 105.823405,206.75166 105.354841,194.677488" id="Fill-71" fill="#1347CE"></path>
                    <path d="M57.6931319,143.145288 C59.4995755,146.943324 64.8624547,148.027234 68.4667886,148.570059 C79.4097994,150.219412 91.5092077,147.199078 98.6408963,138.195489 C99.4534538,137.170732 99.3816066,125.03198 92.9974709,126.061956 C87.4583949,126.952746 89.3076047,148.229054 66.9289167,131.382338 C65.3876235,130.221875 63.0782496,131.467589 62.6505878,133.151739 C61.2546996,138.642623 54.9235939,137.315138 57.6931319,143.145288" id="Fill-73" fill="#0E40AF"></path>
                    <path d="M97.2489497,134.959962 C94.6715413,133.604992 90.6287168,131.062713 89.0633075,131.82745 C71.8041533,140.277193 68.0388958,124.318658 63.1823343,130.433131 C63.1271657,130.504985 63.0857892,130.569997 63.0357927,130.636719 C60.8031881,132.212384 59.1429578,134.056649 56.7448474,135.534798 C55.5914787,136.244789 55.9259383,137.445785 56.7448474,138.18657 C63.9340066,144.697953 76.126269,146.882671 87.1565425,145.688518 C90.7873265,145.296741 96.1938501,144.513185 98.0126902,141.767318 C100.805601,137.550145 103.353701,138.167751 97.2489497,134.959962" id="Fill-75" fill="#1D63ED"></path>
                    <path d="M60.79745,128.059201 C55.8460144,129.800466 45.411254,132.057158 43.2618846,137.294515 C35.1459598,157.075753 14.6707418,176.166929 21.3000613,195.190285 C24.2179016,203.562596 22.1960514,221.465235 21.3822776,226.90266 C21.4191911,228.043722 21.4762391,229.184784 21.5920131,230.322456 C21.897388,233.323466 26.5719728,233.365853 26.2783431,230.322456 C26.076997,228.399774 25.9780018,226.463529 25.9377326,224.520502 C26.1726364,224.491678 26.4058623,224.450987 26.6306987,224.376385 C26.6994919,226.934874 26.8941265,229.474712 27.3941359,231.973859 C27.6810541,233.406545 29.7633081,233.275993 30.1240531,231.973859 C34.9211234,214.705332 31.4948843,216.563584 30.3707021,199.532425 C29.6861254,189.147572 26.0736412,181.68065 35.1459598,169.137443 C39.6359774,162.928572 48.4062769,146.655295 51.5523093,139.520689 C51.8341938,138.88149 51.2116989,138.330457 50.6546414,138.654295 C51.2888815,137.83368 51.8006361,136.945245 52.048963,135.958472 C55.4080867,133.8069 58.6682152,131.790967 61.5558535,129.875067 C62.4468099,129.283343 61.896464,127.672631 60.79745,128.059201" id="Fill-77" fill="#1D63ED"></path>
                    <path d="M62.9087329,203.940773 C62.1725998,204.404549 61.4023315,204.385225 60.6587776,204.148878 C60.4124105,204.414954 60.0517646,204.574006 59.5634828,204.499683 C57.6162919,204.203877 55.3069711,203.81591 53.7263626,202.524174 C53.2009773,202.094586 52.7171478,201.412299 52.5924801,200.716635 C52.1383335,199.97489 52.0181182,199.124633 52.7349575,198.348699 C53.9801505,197.001964 56.1855816,197.514794 57.4604573,198.567209 C58.7501744,199.63003 59.7371271,201.002036 60.8710096,202.217962 C61.5433247,202.608902 62.2215764,202.980518 62.9384157,203.335782 C63.1996242,203.463618 63.1076076,203.81591 62.9087329,203.940773 M43.9815035,191.964341 C43.1711634,191.17057 43.082115,189.840186 44.0913298,189.140061 C44.4208088,189.000334 44.7502877,188.85912 45.0797666,188.719392 C46.1216325,188.719392 47.0729658,189.257492 47.2124749,190.387204 C47.4068972,191.979206 45.4463491,193.401751 43.9815035,191.964341 M74.8456659,199.221253 C71.7274891,200.514476 69.4166841,202.861601 65.9467662,200.947036 C64.0159009,199.87827 62.4649752,197.746682 61.0654318,196.084816 C58.6062129,193.160944 56.5150605,189.525055 53.2128504,187.436575 C52.570218,187.032257 51.9246174,186.685911 51.2745644,186.382673 C51.292374,186.35443 51.3101837,186.320241 51.3279934,186.291999 C51.6500516,185.786601 51.856347,185.26188 52.0567058,184.729726 C52.3431447,184.899183 52.6919175,184.983911 53.1104448,184.881345 C54.9863969,184.425001 54.2799466,181.51302 52.4039944,181.967878 C51.3947797,182.214631 51.1498967,183.164481 51.4170418,183.92555 C50.9317282,184.255544 50.4686767,184.613782 50.1377136,185.096882 C49.9937521,185.304987 49.8364333,185.522011 49.6746621,185.743494 C49.5410896,185.692954 49.4060329,185.62755 49.2724604,185.581469 C49.5678041,184.277841 49.8765051,182.981646 50.0768639,181.661667 C50.1139674,181.654234 50.142166,181.666126 50.1807537,181.657207 C52.4960111,181.092351 51.6233371,177.495111 49.3080797,178.059967 C47.3801827,178.529689 47.6799788,181.068568 49.1641182,181.593289 C48.6788046,182.598138 48.2528566,183.637176 47.9367349,184.716348 C47.8031624,184.380407 47.6666216,184.040007 47.5909305,183.672851 C47.3163647,182.349899 47.234737,180.995731 46.9661078,179.674266 C46.9200995,179.448323 46.681153,179.433459 46.5446122,179.550889 C46.2834037,178.852252 45.6348348,178.305233 44.6983428,178.532662 C42.6398415,179.035087 43.4160464,182.232468 45.4745477,181.73153 C45.9049481,181.625991 46.1854505,181.388157 46.3813569,181.107216 C46.3620631,182.002067 46.3798727,182.901377 46.4273652,183.793254 C46.4481431,184.151492 46.4199445,184.508243 46.3976824,184.862021 C42.8921452,184.485946 39.6774993,185.799979 37.5269814,189.492353 C37.1871135,189.285735 36.777491,189.233709 36.3797416,189.41803 C35.808348,188.596016 35.2087557,187.785894 34.5572185,187.029284 C33.9056813,186.274161 32.8652996,187.32955 33.4589553,188.090619 C33.8982606,188.655475 34.3746693,189.544379 34.9163802,190.370853 C34.4058363,190.654767 33.8819351,190.916385 33.3921691,191.222596 C32.7198539,191.641779 32.9588004,192.6496 33.7528149,192.710545 C34.7887442,192.787841 35.6480609,192.599061 36.4762107,192.21258 C38.5747838,200.279615 42.9262804,206.48857 51.0178083,209.1865 C51.0415545,209.195419 51.0667849,209.199879 51.0905311,209.207311 C51.1083408,210.748773 49.3926757,225.656509 49.5217958,227.187566 C49.535153,227.336213 49.7414484,227.349591 49.7577739,227.196485 C49.9002513,225.763535 52.0166341,210.968769 52.1798894,209.540279 C53.8272841,210.007028 55.5978624,210.338509 57.3907027,210.493101 C57.4693621,211.801189 55.7076887,226.468118 55.9570241,227.802962 C56.0134214,228.109173 56.4542108,228.033364 56.477957,227.747963 C56.5848151,226.478523 58.5958239,211.839837 58.6967454,210.568911 C64.1361162,210.757692 69.5680663,209.158258 72.2187392,204.269281 C73.8112208,203.536455 75.1469462,202.18526 75.9468973,200.107185 C76.2170107,199.408547 75.3962816,198.992338 74.8456659,199.221253" id="Fill-183" fill="#FFFFFF"></path>
                    <path d="M92.1950751,288.31684 C92.4998761,289.20846 92.7804866,290.027885 93.2159166,290.796773 C93.4517746,291.213704 94.0335575,290.950189 93.9984812,290.359987 C93.9126047,288.879968 93.6803754,286.519159 92.5942193,286.022811 C92.4502855,285.95603 92.2615991,286.037251 92.1878179,286.248424 C91.9326075,286.970384 91.9398647,287.569611 92.1950751,288.31684" id="Fill-377" fill="#FFFFFF"></path>
                    <path d="M49.1764623,282.422723 C49.0128513,283.181064 48.7983884,284.474265 49.3898197,284.954001 C49.4749416,285.022535 49.612021,285.013596 49.69051,284.933143 C50.2122961,284.399772 49.8950237,283.426891 49.9867784,282.659611 C50.0719003,281.942987 49.3257019,281.731426 49.1764623,282.422723" id="Fill-379" fill="#FFFFFF"></path>
                    <path d="M50.8762869,290.284255 C50.8313887,289.712294 50.5073416,289.505933 50.1364442,289.114334 C49.9822289,288.951845 49.7167445,288.964845 49.5820502,289.138708 C49.2658113,289.562804 48.9710455,289.795163 49.002279,290.371999 C49.0335124,291.007331 49.0276562,291.658912 49.131117,292.289369 C49.2970448,293.287052 50.964131,293.210682 50.9973165,292.208125 C51.0168374,291.569543 50.9250891,290.922837 50.8762869,290.284255" id="Fill-381" fill="#FFFFFF"></path>
                    <path d="M33.8267575,288.208374 C31.9777279,289.98521 30.9131351,292.449692 29.5996979,294.633092 C27.8874504,297.474022 23.0588795,301.599896 20.506164,303.672872 C19.5107862,304.482654 20.2523756,305.135165 20.4732044,306.41007 C20.715457,307.805438 20.5292356,309.749585 21.5427411,308.702222 C23.5450325,306.630919 29.9342371,300.296548 31.3135934,297.765142 C32.7786445,295.074792 34.4826521,291.946087 34.9885809,288.894346 C35.1006433,288.218412 34.3639978,287.691384 33.8267575,288.208374" id="Fill-413" fill="#FFFFFF"></path>
                    <path d="M98.1388734,304.553913 C94.3039178,302.203427 80.3805192,297.46217 76.525353,294.950547 C73.2512406,292.818996 70.2044972,289.36858 66.5969104,288.025194 C66.2465939,287.895585 65.9282774,288.291419 66.0141723,288.632958 C67.0600693,292.738428 71.3817629,296.089009 74.4941907,298.562099 C77.9552508,301.30842 92.764546,308.154956 97.2428715,307.997323 C98.9860332,307.936021 99.6967716,305.50847 98.1388734,304.553913" id="Fill-415" fill="#FFFFFF"></path>
                </g>
            </g>
        </g>
    </g>
</svg>