<svg xmlns="http://www.w3.org/2000/svg" width="20" height="17" viewBox="0 0 20 17">
    <g fill="none" fill-rule="evenodd">
        <path d="M0-1h20v20H0z"/>
        <path fill="#FFF" d="M14.342 6.5l-3.65-5.467A.827.827 0 0 0 10 .683a.814.814 0 0 0-.692.359L5.658 6.5H1.667a.836.836 0 0 0-.834.833c0 .075.009.15.034.225l2.116 7.725c.192.7.834 1.217 1.6 1.217h10.834c.766 0 1.408-.517 1.608-1.217l2.117-7.725.025-.225a.836.836 0 0 0-.834-.833h-3.991zM7.5 6.5L10 2.833 12.5 6.5h-5zm2.5 6.667c-.917 0-1.667-.75-1.667-1.667S9.083 9.833 10 9.833s1.667.75 1.667 1.667-.75 1.667-1.667 1.667z"/>
    </g>
</svg>
