<svg xmlns="http://www.w3.org/2000/svg" width="216" height="174" viewBox="0 0 216 174">
    <g fill="none" fill-rule="nonzero">
        <path fill="#787C84" d="M105.097 95.915l-3.86-1.23 3.118-2.588 1.23-3.86 2.588 3.118 3.861 1.23-3.119 2.588-1.23 3.861z"/>
        <path stroke="#BABCC0" stroke-width=".5" d="M186.34 108.28l-7.021-2.237 5.671-4.704 2.237-7.02 4.704 5.671 7.02 2.237-5.67 4.704-2.238 7.02z"/>
        <path fill="#787C84" d="M53.435 87.211l-2.809-.895 2.269-1.881.895-2.809 1.881 2.269 2.808.895-2.268 1.881-.895 2.808zM155.435 6.211l-2.809-.895 2.269-1.881.895-2.809 1.881 2.269 2.808.895-2.268 1.881-.895 2.808zM2.521 156.95l-2.457-.782 1.985-1.647.783-2.457 1.647 1.985 2.457.783-1.985 1.647-.783 2.457zM18.217 172.605l-1.404-.447 1.134-.94.448-1.405.94 1.134 1.405.448-1.135.94-.447 1.405zM127.217 70.605l-1.404-.447 1.134-.94.448-1.405.94 1.134 1.405.448-1.135.94-.447 1.405zM124.217 4.605l-1.404-.447 1.134-.94.448-1.405.94 1.134 1.405.448-1.135.94-.447 1.405z"/>
        <path stroke="#BABCC0" stroke-width=".5" d="M59.626 109.186l20.188-3.56 3.56 20.188-20.188 3.56zM175.626 132.186l20.188-3.56 3.56 20.188-20.188 3.56zM206.656 65.958l7.386-1.302 1.302 7.386-7.386 1.302zM133.418 101.241l10.34-1.823 1.824 10.34-10.34 1.824z"/>
        <path fill="#787C84" d="M155.217 123.605l-1.404-.447 1.134-.94.448-1.405.94 1.134 1.405.448-1.135.94-.447 1.405zM210.004 124.062l-2.138-.56 1.625-1.498.56-2.138 1.498 1.625 2.138.56-1.625 1.498-.56 2.138z"/>
    </g>
</svg>
