<svg xmlns="http://www.w3.org/2000/svg" width="20" height="17" viewBox="0 0 20 17">
    <g fill="#FFF" fill-rule="nonzero">
        <path d="M18.485.01h-13.7c-.821 0-1.479.675-1.479 1.479V10c0 .822.676 1.48 1.48 1.48h9.443l2.137 2.155c.091.091.2.146.329.146.255 0 .474-.2.474-.475V11.48h1.316c.821 0 1.479-.676 1.479-1.48V1.49c0-.822-.676-1.48-1.48-1.48zM6.886 7.333a1.38 1.38 0 0 1-1.37-1.37c0-.75.622-1.37 1.37-1.37.75 0 1.37.62 1.37 1.37 0 .749-.602 1.37-1.37 1.37zm4.804 0a1.38 1.38 0 0 1-1.37-1.37c0-.75.621-1.37 1.37-1.37.749 0 1.37.62 1.37 1.37a1.38 1.38 0 0 1-1.37 1.37zm4.785 0a1.38 1.38 0 0 1-1.37-1.37c0-.75.622-1.37 1.37-1.37.75 0 1.37.62 1.37 1.37a1.38 1.38 0 0 1-1.37 1.37z"/>
        <path d="M2.466 10.037V7.133H.97A.974.974 0 0 0 0 8.1v5.589a.96.96 0 0 0 .968 1.004h.858V15.9c0 .164.146.31.31.31a.302.302 0 0 0 .22-.091l1.406-1.406h6.21c.53 0 .968-.439.968-.968v-1.389H4.786a2.323 2.323 0 0 1-2.32-2.32z"/>
    </g>
</svg>
