<svg xmlns="http://www.w3.org/2000/svg" width="70" height="57" viewBox="0 0 70 57">
    <g fill="#2E96FF" fill-rule="nonzero">
        <path d="M64.696.033H16.751c-2.877 0-5.178 2.365-5.178 5.178v29.79c0 2.877 2.365 5.178 5.178 5.178H49.8l7.48 7.543c.32.32.703.512 1.15.512a1.65 1.65 0 0 0 1.662-1.662v-6.393h4.603c2.877 0 5.178-2.365 5.178-5.178V5.211c0-2.877-2.365-5.178-5.178-5.178zM24.102 25.668c-2.62 0-4.794-2.174-4.794-4.795 0-2.62 2.173-4.794 4.794-4.794 2.621 0 4.795 2.173 4.795 4.794a4.788 4.788 0 0 1-4.795 4.795zm16.813 0c-2.62 0-4.794-2.174-4.794-4.795 0-2.62 2.173-4.794 4.794-4.794 2.621 0 4.795 2.173 4.795 4.794 0 2.621-2.174 4.795-4.795 4.795zm16.749 0c-2.621 0-4.795-2.174-4.795-4.795 0-2.62 2.174-4.794 4.795-4.794s4.795 2.173 4.795 4.794c0 2.621-2.174 4.795-4.795 4.795z"/>
        <path d="M8.632 35.129V24.964H3.39c-1.854 0-3.388 1.535-3.388 3.389v19.561c-.064 1.982 1.47 3.516 3.388 3.516h3.005v4.22c0 .575.511 1.086 1.086 1.086.32 0 .576-.128.767-.32l4.923-4.922h21.735c1.854 0 3.388-1.534 3.388-3.388v-4.858H16.751c-4.475 0-8.119-3.644-8.119-8.12z"/>
    </g>
</svg>
